<svg width="286" height="78" viewBox="0 0 286 78" fill="none" xmlns="http://www.w3.org/2000/svg">
<g clip-path="url(#clip0_228_7232)">
<rect x="0.25" y="0.666626" width="286" height="77" fill="#DB3133"/>
<path d="M74.9062 23.2916V34.6666H73.0156V24.8854H69.1406V34.6666H67.2422V23.2916H74.9062ZM80.8516 30.4479H78.4531V28.8619H80.8516C81.2422 28.8619 81.5573 28.7786 81.7969 28.6119C82.0417 28.4453 82.2188 28.2161 82.3281 27.9244C82.4427 27.6328 82.5 27.302 82.5 26.9323C82.5 26.5781 82.4427 26.2448 82.3281 25.9323C82.2188 25.6198 82.0443 25.3671 81.8047 25.1744C81.5651 24.9817 81.2474 24.8854 80.8516 24.8854H78.9844V34.6666H77.0938V23.2916H80.8516C81.6016 23.2916 82.2422 23.4479 82.7734 23.7604C83.3047 24.0729 83.7109 24.5026 83.9922 25.0494C84.2734 25.5911 84.4141 26.2135 84.4141 26.9166C84.4141 27.651 84.2734 28.2812 83.9922 28.8073C83.7109 29.3333 83.3047 29.7395 82.7734 30.026C82.2422 30.3073 81.6016 30.4479 80.8516 30.4479ZM87.9375 31.2057L91.8984 23.2916H93.7344V34.6666H91.875V26.7994L87.9375 34.6666H86.0859V23.2916H87.9375V31.2057ZM99.5625 29.5416H97.2422L97.2344 28.0885H99.2891C99.6068 28.0885 99.8776 28.026 100.102 27.901C100.326 27.776 100.495 27.5937 100.609 27.3541C100.729 27.1145 100.789 26.8255 100.789 26.4869C100.789 26.1119 100.737 25.8073 100.633 25.5729C100.529 25.3333 100.365 25.1588 100.141 25.0494C99.9219 24.9401 99.6406 24.8854 99.2969 24.8854H97.8047V34.6666H95.9062V23.2916H99.2969C99.8281 23.2916 100.302 23.3541 100.719 23.4791C101.141 23.5989 101.497 23.7838 101.789 24.0338C102.081 24.2838 102.302 24.6041 102.453 24.9948C102.609 25.3802 102.688 25.8385 102.688 26.3698C102.688 26.8333 102.589 27.2604 102.391 27.651C102.193 28.0364 101.898 28.3541 101.508 28.6041C101.122 28.8489 100.643 28.9948 100.07 29.0416L99.5625 29.5416ZM99.4922 34.6666H96.6172L97.4922 33.0807H99.4922C99.8307 33.0807 100.109 33.0078 100.328 32.8619C100.547 32.7161 100.711 32.513 100.82 32.2526C100.93 31.9921 100.984 31.6875 100.984 31.3385C100.984 30.9739 100.938 30.6562 100.844 30.3854C100.75 30.1145 100.599 29.9062 100.391 29.7604C100.182 29.6145 99.9062 29.5416 99.5625 29.5416H97.6484L97.6641 28.0885H100.109L100.547 28.6432C101.094 28.6536 101.539 28.789 101.883 29.0494C102.227 29.3046 102.479 29.6354 102.641 30.0416C102.802 30.4479 102.883 30.8828 102.883 31.3463C102.883 32.0703 102.747 32.6796 102.477 33.1744C102.206 33.664 101.818 34.0364 101.312 34.2916C100.812 34.5416 100.206 34.6666 99.4922 34.6666ZM108.703 24.8541L105.953 34.6666H103.969L107.578 23.2916H108.812L108.703 24.8541ZM110.898 34.6666L108.141 24.8541L108.008 23.2916H109.266L112.891 34.6666H110.898ZM110.945 30.4401V32.0338H105.648V30.4401H110.945ZM117.352 23.2916V34.6666H115.461V23.2916H117.352ZM120.25 23.2916V24.8854H112.594V23.2916H120.25ZM123.594 31.2057L127.555 23.2916H129.391V34.6666H127.531V26.7994L123.594 34.6666H121.742V23.2916H123.594V31.2057ZM134.945 29.2135H133.625V28.0807H134.742C135.096 28.0807 135.38 28.0104 135.594 27.8698C135.812 27.7291 135.971 27.5312 136.07 27.276C136.174 27.0208 136.227 26.7239 136.227 26.3854C136.227 26.0833 136.169 25.8073 136.055 25.5573C135.94 25.3073 135.763 25.1067 135.523 24.9557C135.289 24.8046 134.987 24.7291 134.617 24.7291C134.341 24.7291 134.089 24.7968 133.859 24.9323C133.635 25.0625 133.458 25.2474 133.328 25.4869C133.198 25.7265 133.133 26.0078 133.133 26.3307H131.242C131.242 25.8359 131.331 25.3932 131.508 25.0026C131.685 24.6067 131.93 24.2708 132.242 23.9948C132.555 23.7187 132.914 23.5078 133.32 23.3619C133.732 23.2109 134.164 23.1354 134.617 23.1354C135.148 23.1354 135.628 23.2057 136.055 23.3463C136.487 23.4817 136.857 23.6849 137.164 23.9557C137.471 24.2265 137.706 24.5651 137.867 24.9713C138.034 25.3724 138.117 25.8385 138.117 26.3698C138.117 26.7604 138.042 27.1276 137.891 27.4713C137.74 27.8151 137.523 28.1171 137.242 28.3776C136.961 28.638 136.625 28.8437 136.234 28.9948C135.849 29.1406 135.419 29.2135 134.945 29.2135ZM133.625 28.5338H134.945C135.466 28.5338 135.93 28.5989 136.336 28.7291C136.747 28.8593 137.096 29.0494 137.383 29.2994C137.669 29.5494 137.888 29.8593 138.039 30.2291C138.19 30.5937 138.266 31.013 138.266 31.4869C138.266 32.0182 138.174 32.4921 137.992 32.9088C137.815 33.3203 137.562 33.6692 137.234 33.9557C136.911 34.2421 136.526 34.4583 136.078 34.6041C135.635 34.75 135.146 34.8229 134.609 34.8229C134.182 34.8229 133.76 34.7604 133.344 34.6354C132.932 34.5052 132.557 34.3073 132.219 34.0416C131.88 33.7708 131.609 33.427 131.406 33.0104C131.203 32.5937 131.102 32.0937 131.102 31.5104H133C133 31.8281 133.068 32.1198 133.203 32.3854C133.344 32.6458 133.534 32.8541 133.773 33.0104C134.018 33.1614 134.299 33.2369 134.617 33.2369C134.992 33.2369 135.31 33.1614 135.57 33.0104C135.831 32.8593 136.029 32.651 136.164 32.3854C136.305 32.1145 136.375 31.8125 136.375 31.4791C136.375 31.1614 136.339 30.8854 136.266 30.651C136.198 30.4166 136.094 30.2265 135.953 30.0807C135.818 29.9296 135.648 29.8203 135.445 29.7526C135.242 29.6796 135.005 29.6432 134.734 29.6432H133.625V28.5338ZM143.969 24.8541L141.219 34.6666H139.234L142.844 23.2916H144.078L143.969 24.8541ZM146.164 34.6666L143.406 24.8541L143.273 23.2916H144.531L148.156 34.6666H146.164ZM146.211 30.4401V32.0338H140.914V30.4401H146.211ZM158.328 33.0651L158.18 37.4088H156.445V34.6666H155.602V33.0651H158.328ZM149.438 34.6666V23.2916H151.336V33.0807H155.203V23.2916H157.109V34.6666H149.438ZM161.766 31.2057L165.727 23.2916H167.562V34.6666H165.703V26.7994L161.766 34.6666H159.914V23.2916H161.766V31.2057ZM174.859 30.4166H172.477L171.711 30.0963C170.971 29.8203 170.404 29.4062 170.008 28.8541C169.612 28.302 169.414 27.6041 169.414 26.7604C169.414 26.0104 169.555 25.3776 169.836 24.8619C170.122 24.3463 170.529 23.9557 171.055 23.6901C171.586 23.4244 172.211 23.2916 172.93 23.2916H176.219V34.6666H174.32V24.8854H172.93C172.378 24.8854 171.969 25.0625 171.703 25.4166C171.438 25.7656 171.305 26.2474 171.305 26.8619C171.305 27.289 171.365 27.6536 171.484 27.9557C171.609 28.2578 171.797 28.4895 172.047 28.651C172.297 28.8073 172.609 28.8854 172.984 28.8854H174.859V30.4166ZM173.133 29.5338L170.938 34.6666H168.906L171.133 29.5338H173.133ZM183.922 31.2057L187.883 23.2916H189.719V34.6666H187.859V26.7994L183.922 34.6666H182.07V23.2916H183.922V31.2057ZM192.539 23.2916H194.266L196.883 31.7526L199.492 23.2916H201.094L197.594 34.6666H196.164L192.539 23.2916ZM191.891 23.2916H193.484L193.742 30.5338V34.6666H191.891V23.2916ZM200.266 23.2916H201.867V34.6666H200.016V30.5338L200.266 23.2916ZM206.922 30.6901L209.219 23.2916H211.305L208.109 32.5885C207.995 32.8802 207.87 33.1614 207.734 33.4323C207.604 33.7031 207.445 33.9453 207.258 34.1588C207.07 34.3671 206.841 34.5312 206.57 34.651C206.305 34.7708 205.979 34.8307 205.594 34.8307C205.484 34.8307 205.357 34.8255 205.211 34.8151C205.07 34.8046 204.966 34.7968 204.898 34.7916L204.891 33.2135C204.943 33.2187 205.034 33.2265 205.164 33.2369C205.299 33.2421 205.393 33.2448 205.445 33.2448C205.685 33.2448 205.867 33.1953 205.992 33.0963C206.122 32.9921 206.224 32.8541 206.297 32.6823C206.37 32.5104 206.435 32.3203 206.492 32.1119L206.922 30.6901ZM205.523 23.2916L207.648 29.5104L208.172 31.6276L206.703 31.6823L203.461 23.2916H205.523ZM225.008 33.1354L224.859 37.4088H223.195V34.6666H222.312V33.1354H225.008ZM212.828 23.2916H214.727V33.0807H217.406V23.2916H219.289V33.0807H221.938V23.2916H223.828V34.6666H212.828V23.2916ZM233.055 33.0807V34.6666H228.117V33.0807H233.055ZM228.617 23.2916V34.6666H226.719V23.2916H228.617ZM232.391 28.026V29.5885H228.117V28.026H232.391ZM233.008 23.2916V24.8854H228.117V23.2916H233.008ZM240.172 30.9557H242.062C242.026 31.7786 241.859 32.4791 241.562 33.0573C241.266 33.6302 240.839 34.0677 240.281 34.3698C239.729 34.6718 239.055 34.8229 238.258 34.8229C237.654 34.8229 237.112 34.7135 236.633 34.4948C236.159 34.276 235.755 33.9609 235.422 33.5494C235.089 33.1328 234.833 32.625 234.656 32.026C234.484 31.427 234.398 30.7474 234.398 29.9869V27.9713C234.398 27.2109 234.487 26.5312 234.664 25.9323C234.846 25.3333 235.107 24.8255 235.445 24.4088C235.784 23.9921 236.195 23.677 236.68 23.4635C237.169 23.2448 237.721 23.1354 238.336 23.1354C239.122 23.1354 239.784 23.2864 240.32 23.5885C240.857 23.8906 241.271 24.3333 241.562 24.9166C241.854 25.5 242.023 26.2109 242.07 27.0494H240.18C240.154 26.4817 240.076 26.0286 239.945 25.6901C239.82 25.3463 239.628 25.0989 239.367 24.9479C239.112 24.7968 238.768 24.7213 238.336 24.7213C237.977 24.7213 237.667 24.789 237.406 24.9244C237.151 25.0599 236.94 25.263 236.773 25.5338C236.612 25.7994 236.49 26.1354 236.406 26.5416C236.328 26.9427 236.289 27.414 236.289 27.9557V29.9869C236.289 30.5078 236.323 30.9687 236.391 31.3698C236.458 31.7708 236.568 32.1119 236.719 32.3932C236.87 32.6692 237.07 32.8802 237.32 33.026C237.57 33.1666 237.883 33.2369 238.258 33.2369C238.706 33.2369 239.062 33.1666 239.328 33.026C239.599 32.8854 239.799 32.6484 239.93 32.3151C240.06 31.9817 240.141 31.5286 240.172 30.9557ZM247.633 23.2916V34.6666H245.742V23.2916H247.633ZM250.531 23.2916V24.8854H242.875V23.2916H250.531ZM255.688 29.5416H253.367L253.359 28.0885H255.414C255.732 28.0885 256.003 28.026 256.227 27.901C256.451 27.776 256.62 27.5937 256.734 27.3541C256.854 27.1145 256.914 26.8255 256.914 26.4869C256.914 26.1119 256.862 25.8073 256.758 25.5729C256.654 25.3333 256.49 25.1588 256.266 25.0494C256.047 24.9401 255.766 24.8854 255.422 24.8854H253.93V34.6666H252.031V23.2916H255.422C255.953 23.2916 256.427 23.3541 256.844 23.4791C257.266 23.5989 257.622 23.7838 257.914 24.0338C258.206 24.2838 258.427 24.6041 258.578 24.9948C258.734 25.3802 258.812 25.8385 258.812 26.3698C258.812 26.8333 258.714 27.2604 258.516 27.651C258.318 28.0364 258.023 28.3541 257.633 28.6041C257.247 28.8489 256.768 28.9948 256.195 29.0416L255.688 29.5416ZM255.617 34.6666H252.742L253.617 33.0807H255.617C255.956 33.0807 256.234 33.0078 256.453 32.8619C256.672 32.7161 256.836 32.513 256.945 32.2526C257.055 31.9921 257.109 31.6875 257.109 31.3385C257.109 30.9739 257.062 30.6562 256.969 30.3854C256.875 30.1145 256.724 29.9062 256.516 29.7604C256.307 29.6145 256.031 29.5416 255.688 29.5416H253.773L253.789 28.0885H256.234L256.672 28.6432C257.219 28.6536 257.664 28.789 258.008 29.0494C258.352 29.3046 258.604 29.6354 258.766 30.0416C258.927 30.4479 259.008 30.8828 259.008 31.3463C259.008 32.0703 258.872 32.6796 258.602 33.1744C258.331 33.664 257.943 34.0364 257.438 34.2916C256.938 34.5416 256.331 34.6666 255.617 34.6666ZM264.828 24.8541L262.078 34.6666H260.094L263.703 23.2916H264.938L264.828 24.8541ZM267.023 34.6666L264.266 24.8541L264.133 23.2916H265.391L269.016 34.6666H267.023ZM267.07 30.4401V32.0338H261.773V30.4401H267.07ZM132.992 42.2916V53.6666H131.102V42.2916H132.992ZM135.891 42.2916V43.8854H128.234V42.2916H135.891ZM140.312 49.6901L142.609 42.2916H144.695L141.5 51.5885C141.385 51.8802 141.26 52.1614 141.125 52.4323C140.995 52.7031 140.836 52.9453 140.648 53.1588C140.461 53.3671 140.232 53.5312 139.961 53.651C139.695 53.7708 139.37 53.8307 138.984 53.8307C138.875 53.8307 138.747 53.8255 138.602 53.8151C138.461 53.8046 138.357 53.7968 138.289 53.7916L138.281 52.2135C138.333 52.2187 138.424 52.2265 138.555 52.2369C138.69 52.2421 138.784 52.2448 138.836 52.2448C139.076 52.2448 139.258 52.1953 139.383 52.0963C139.513 51.9921 139.615 51.8541 139.688 51.6823C139.76 51.5104 139.826 51.3203 139.883 51.1119L140.312 49.6901ZM138.914 42.2916L141.039 48.5104L141.562 50.6276L140.094 50.6823L136.852 42.2916H138.914ZM151.953 42.2916V43.8854H147.477V42.2916H151.953ZM153.43 42.2916V53.6666H151.539V42.2916H153.43ZM147.109 42.2916H148.992L148.773 47.9557C148.742 48.7838 148.682 49.513 148.594 50.1432C148.505 50.7682 148.383 51.3046 148.227 51.7526C148.07 52.2005 147.87 52.5651 147.625 52.8463C147.385 53.1276 147.099 53.3359 146.766 53.4713C146.438 53.6015 146.057 53.6666 145.625 53.6666H145.156V52.0807L145.43 52.0494C145.648 52.0286 145.839 51.9635 146 51.8541C146.167 51.7448 146.305 51.5781 146.414 51.3541C146.529 51.1302 146.622 50.8437 146.695 50.4948C146.768 50.1406 146.826 49.7109 146.867 49.2057C146.909 48.7005 146.938 48.1093 146.953 47.4323L147.109 42.2916ZM156.938 46.6276H159.297C160.031 46.6276 160.661 46.7734 161.188 47.0651C161.714 47.3567 162.115 47.763 162.391 48.2838C162.672 48.8046 162.812 49.4166 162.812 50.1198C162.812 50.6406 162.732 51.1171 162.57 51.5494C162.414 51.9817 162.182 52.3567 161.875 52.6744C161.573 52.9921 161.206 53.2369 160.773 53.4088C160.341 53.5807 159.849 53.6666 159.297 53.6666H155.586V42.2916H157.484V52.0807H159.297C159.672 52.0807 159.977 51.9895 160.211 51.8073C160.451 51.6198 160.628 51.3776 160.742 51.0807C160.862 50.7786 160.922 50.4531 160.922 50.1041C160.922 49.7552 160.862 49.4401 160.742 49.1588C160.628 48.8724 160.451 48.6458 160.211 48.4791C159.977 48.3073 159.672 48.2213 159.297 48.2213H156.938V46.6276ZM169.969 49.9557H171.859C171.823 50.7786 171.656 51.4791 171.359 52.0573C171.062 52.6302 170.635 53.0677 170.078 53.3698C169.526 53.6718 168.852 53.8229 168.055 53.8229C167.451 53.8229 166.909 53.7135 166.43 53.4948C165.956 53.276 165.552 52.9609 165.219 52.5494C164.885 52.1328 164.63 51.625 164.453 51.026C164.281 50.427 164.195 49.7474 164.195 48.9869V46.9713C164.195 46.2109 164.284 45.5312 164.461 44.9323C164.643 44.3333 164.904 43.8255 165.242 43.4088C165.581 42.9921 165.992 42.677 166.477 42.4635C166.966 42.2448 167.518 42.1354 168.133 42.1354C168.919 42.1354 169.581 42.2864 170.117 42.5885C170.654 42.8906 171.068 43.3333 171.359 43.9166C171.651 44.5 171.82 45.2109 171.867 46.0494H169.977C169.951 45.4817 169.872 45.0286 169.742 44.6901C169.617 44.3463 169.424 44.0989 169.164 43.9479C168.909 43.7968 168.565 43.7213 168.133 43.7213C167.773 43.7213 167.464 43.789 167.203 43.9244C166.948 44.0599 166.737 44.263 166.57 44.5338C166.409 44.7994 166.286 45.1354 166.203 45.5416C166.125 45.9427 166.086 46.414 166.086 46.9557V48.9869C166.086 49.5078 166.12 49.9687 166.188 50.3698C166.255 50.7708 166.365 51.1119 166.516 51.3932C166.667 51.6692 166.867 51.8802 167.117 52.026C167.367 52.1666 167.68 52.2369 168.055 52.2369C168.503 52.2369 168.859 52.1666 169.125 52.026C169.396 51.8854 169.596 51.6484 169.727 51.3151C169.857 50.9817 169.938 50.5286 169.969 49.9557ZM175.469 42.2916V53.6666H173.57V42.2916H175.469ZM181.148 42.2916L177.352 48.7994H174.922L174.648 47.0494H176.289L178.836 42.2916H181.148ZM179.172 53.6666L176.344 48.4869L177.562 46.9557L181.445 53.6666H179.172ZM190 47.0494V48.9869C190 49.789 189.906 50.4921 189.719 51.0963C189.536 51.7005 189.271 52.2057 188.922 52.6119C188.578 53.013 188.161 53.3151 187.672 53.5182C187.188 53.7213 186.646 53.8229 186.047 53.8229C185.453 53.8229 184.911 53.7213 184.422 53.5182C183.938 53.3151 183.518 53.013 183.164 52.6119C182.815 52.2057 182.544 51.7005 182.352 51.0963C182.164 50.4921 182.07 49.789 182.07 48.9869V47.0494C182.07 46.2369 182.164 45.526 182.352 44.9166C182.539 44.302 182.807 43.789 183.156 43.3776C183.51 42.9661 183.93 42.6562 184.414 42.4479C184.904 42.2395 185.443 42.1354 186.031 42.1354C186.63 42.1354 187.172 42.2395 187.656 42.4479C188.146 42.6562 188.565 42.9661 188.914 43.3776C189.263 43.789 189.531 44.302 189.719 44.9166C189.906 45.526 190 46.2369 190 47.0494ZM188.117 48.9869V47.0338C188.117 46.4557 188.07 45.9609 187.977 45.5494C187.888 45.1328 187.755 44.7942 187.578 44.5338C187.401 44.2682 187.182 44.0729 186.922 43.9479C186.667 43.8177 186.37 43.7526 186.031 43.7526C185.703 43.7526 185.409 43.8177 185.148 43.9479C184.893 44.0729 184.674 44.2682 184.492 44.5338C184.315 44.7942 184.18 45.1328 184.086 45.5494C183.997 45.9609 183.953 46.4557 183.953 47.0338V48.9869C183.953 49.5546 184 50.0442 184.094 50.4557C184.188 50.8619 184.323 51.1953 184.5 51.4557C184.682 51.7109 184.904 51.901 185.164 52.026C185.424 52.151 185.719 52.2135 186.047 52.2135C186.38 52.2135 186.677 52.151 186.938 52.026C187.198 51.901 187.414 51.7109 187.586 51.4557C187.763 51.1953 187.896 50.8619 187.984 50.4557C188.073 50.0442 188.117 49.5546 188.117 48.9869ZM193.766 50.2057L197.727 42.2916H199.562V53.6666H197.703V45.7994L193.766 53.6666H191.914V42.2916H193.766V50.2057ZM196.875 39.3776H198.281C198.281 39.8099 198.177 40.1927 197.969 40.526C197.766 40.8593 197.474 41.1198 197.094 41.3073C196.719 41.4948 196.271 41.5885 195.75 41.5885C194.969 41.5885 194.349 41.3828 193.891 40.9713C193.438 40.5599 193.211 40.0286 193.211 39.3776H194.617C194.617 39.664 194.703 39.9166 194.875 40.1354C195.047 40.3541 195.339 40.4635 195.75 40.4635C196.161 40.4635 196.451 40.3541 196.617 40.1354C196.789 39.9166 196.875 39.664 196.875 39.3776ZM213.141 47.0494V48.9869C213.141 49.789 213.047 50.4921 212.859 51.0963C212.677 51.7005 212.411 52.2057 212.062 52.6119C211.719 53.013 211.302 53.3151 210.812 53.5182C210.328 53.7213 209.786 53.8229 209.188 53.8229C208.594 53.8229 208.052 53.7213 207.562 53.5182C207.078 53.3151 206.659 53.013 206.305 52.6119C205.956 52.2057 205.685 51.7005 205.492 51.0963C205.305 50.4921 205.211 49.789 205.211 48.9869V47.0494C205.211 46.2369 205.305 45.526 205.492 44.9166C205.68 44.302 205.948 43.789 206.297 43.3776C206.651 42.9661 207.07 42.6562 207.555 42.4479C208.044 42.2395 208.583 42.1354 209.172 42.1354C209.771 42.1354 210.312 42.2395 210.797 42.4479C211.286 42.6562 211.706 42.9661 212.055 43.3776C212.404 43.789 212.672 44.302 212.859 44.9166C213.047 45.526 213.141 46.2369 213.141 47.0494ZM211.258 48.9869V47.0338C211.258 46.4557 211.211 45.9609 211.117 45.5494C211.029 45.1328 210.896 44.7942 210.719 44.5338C210.542 44.2682 210.323 44.0729 210.062 43.9479C209.807 43.8177 209.51 43.7526 209.172 43.7526C208.844 43.7526 208.549 43.8177 208.289 43.9479C208.034 44.0729 207.815 44.2682 207.633 44.5338C207.456 44.7942 207.32 45.1328 207.227 45.5494C207.138 45.9609 207.094 46.4557 207.094 47.0338V48.9869C207.094 49.5546 207.141 50.0442 207.234 50.4557C207.328 50.8619 207.464 51.1953 207.641 51.4557C207.823 51.7109 208.044 51.901 208.305 52.026C208.565 52.151 208.859 52.2135 209.188 52.2135C209.521 52.2135 209.818 52.151 210.078 52.026C210.339 51.901 210.555 51.7109 210.727 51.4557C210.904 51.1953 211.036 50.8619 211.125 50.4557C211.214 50.0442 211.258 49.5546 211.258 48.9869ZM221.195 42.2916V43.8854H216.93V53.6666H215.039V42.2916H221.195ZM216.391 46.6276H218.75C219.484 46.6276 220.115 46.7734 220.641 47.0651C221.167 47.3567 221.568 47.763 221.844 48.2838C222.125 48.8046 222.266 49.4166 222.266 50.1198C222.266 50.6406 222.185 51.1171 222.023 51.5494C221.867 51.9817 221.635 52.3567 221.328 52.6744C221.026 52.9921 220.659 53.2369 220.227 53.4088C219.794 53.5807 219.302 53.6666 218.75 53.6666H215.039V42.2916H216.938V52.0807H218.75C219.125 52.0807 219.43 51.9895 219.664 51.8073C219.904 51.6198 220.081 51.3776 220.195 51.0807C220.315 50.7786 220.375 50.4531 220.375 50.1041C220.375 49.7552 220.315 49.4401 220.195 49.1588C220.081 48.8724 219.904 48.6458 219.664 48.4791C219.43 48.3073 219.125 48.2213 218.75 48.2213H216.391V46.6276ZM230.016 42.2916V43.8854H225.539V42.2916H230.016ZM231.492 42.2916V53.6666H229.602V42.2916H231.492ZM225.172 42.2916H227.055L226.836 47.9557C226.805 48.7838 226.745 49.513 226.656 50.1432C226.568 50.7682 226.445 51.3046 226.289 51.7526C226.133 52.2005 225.932 52.5651 225.688 52.8463C225.448 53.1276 225.161 53.3359 224.828 53.4713C224.5 53.6015 224.12 53.6666 223.688 53.6666H223.219V52.0807L223.492 52.0494C223.711 52.0286 223.901 51.9635 224.062 51.8541C224.229 51.7448 224.367 51.5781 224.477 51.3541C224.591 51.1302 224.685 50.8437 224.758 50.4948C224.831 50.1406 224.888 49.7109 224.93 49.2057C224.971 48.7005 225 48.1093 225.016 47.4323L225.172 42.2916ZM237.734 43.8541L234.984 53.6666H233L236.609 42.2916H237.844L237.734 43.8541ZM239.93 53.6666L237.172 43.8541L237.039 42.2916H238.297L241.922 53.6666H239.93ZM239.977 49.4401V51.0338H234.68V49.4401H239.977ZM248.641 49.9557H250.531C250.495 50.7786 250.328 51.4791 250.031 52.0573C249.734 52.6302 249.307 53.0677 248.75 53.3698C248.198 53.6718 247.523 53.8229 246.727 53.8229C246.122 53.8229 245.581 53.7135 245.102 53.4948C244.628 53.276 244.224 52.9609 243.891 52.5494C243.557 52.1328 243.302 51.625 243.125 51.026C242.953 50.427 242.867 49.7474 242.867 48.9869V46.9713C242.867 46.2109 242.956 45.5312 243.133 44.9323C243.315 44.3333 243.576 43.8255 243.914 43.4088C244.253 42.9921 244.664 42.677 245.148 42.4635C245.638 42.2448 246.19 42.1354 246.805 42.1354C247.591 42.1354 248.253 42.2864 248.789 42.5885C249.326 42.8906 249.74 43.3333 250.031 43.9166C250.323 44.5 250.492 45.2109 250.539 46.0494H248.648C248.622 45.4817 248.544 45.0286 248.414 44.6901C248.289 44.3463 248.096 44.0989 247.836 43.9479C247.581 43.7968 247.237 43.7213 246.805 43.7213C246.445 43.7213 246.135 43.789 245.875 43.9244C245.62 44.0599 245.409 44.263 245.242 44.5338C245.081 44.7994 244.958 45.1354 244.875 45.5416C244.797 45.9427 244.758 46.414 244.758 46.9557V48.9869C244.758 49.5078 244.792 49.9687 244.859 50.3698C244.927 50.7708 245.036 51.1119 245.188 51.3932C245.339 51.6692 245.539 51.8802 245.789 52.026C246.039 52.1666 246.352 52.2369 246.727 52.2369C247.174 52.2369 247.531 52.1666 247.797 52.026C248.068 51.8854 248.268 51.6484 248.398 51.3151C248.529 50.9817 248.609 50.5286 248.641 49.9557ZM256.102 42.2916V53.6666H254.211V42.2916H256.102ZM259 42.2916V43.8854H251.344V42.2916H259ZM262.344 50.2057L266.305 42.2916H268.141V53.6666H266.281V45.7994L262.344 53.6666H260.492V42.2916H262.344V50.2057Z" fill="white"/>
<g clip-path="url(#clip1_228_7232)">
<path d="M16.5385 32.0721L17.7201 32.9392L17.9766 33.1606C18.1048 33.3174 18.2605 33.4834 18.1323 33.7048C17.9766 33.963 17.7201 34.0553 17.427 34.0553C17.8758 34.1198 18.3155 34.0553 18.7002 33.9261C19.2773 33.7324 19.9459 33.3819 20.1383 32.7362C20.2299 32.2843 19.9459 31.9338 19.6253 31.6109L18.5719 30.6516L18.059 30.172C17.8025 29.8492 17.4544 29.5909 17.3537 29.2127C17.2254 28.7607 17.4178 28.3733 17.8025 28.0874C18.3429 27.5709 19.0483 27.3495 19.8085 27.4786C20.6421 27.5709 21.2741 28.2534 21.8787 29.4064H20.294V49.247C20.3856 50.0864 20.6146 50.8889 21.0268 51.6268C21.8603 53.2687 23.5183 54.2556 25.2037 54.5508L26.4769 54.809C27.402 55.0304 28.3272 55.261 29.1882 55.7038C30.0492 56.1188 30.8461 57.0505 31.1942 57.9175C31.5423 57.0781 32.2751 56.2203 33.1361 55.7683C33.9971 55.3164 34.9223 55.0581 35.8474 54.8367L37.4412 54.5139C38.1465 54.3571 38.8152 54.0988 39.4472 53.7114C41.041 52.7152 41.8746 51.0826 42.0944 49.3485V29.4064H40.6289C41.0777 28.5117 41.3983 28.0874 41.8746 27.8015C42.5158 27.3864 43.56 27.3218 44.2012 27.7369C44.5218 27.9306 44.8424 28.1889 45.0622 28.5117C45.2179 28.8345 45.1905 29.2496 44.9706 29.5356C44.4943 30.1443 43.8898 30.6885 43.3402 31.1774C42.9555 31.5648 42.415 31.9153 42.3509 32.4595C42.3234 32.8469 42.5433 33.1698 42.8272 33.4188C43.4684 33.8985 44.2287 34.1291 45.0622 34.0276C44.9065 34.0276 44.7783 33.9999 44.65 33.9354C44.5218 33.8431 44.3661 33.7417 44.3294 33.548C44.3294 33.262 44.5859 33.0683 44.7783 32.9023L45.795 32.1644C46.2072 31.8784 46.656 31.4541 46.8484 31.0114C47.169 30.2735 46.7202 29.6001 46.2072 29.0559C45.5019 28.3826 44.7691 27.8384 43.9447 27.4141C43.3677 27.1281 42.7631 26.833 42.1311 26.6761C41.2059 26.4548 40.2167 26.6761 39.4564 27.1281C38.7511 27.5155 38.2473 28.1889 37.6427 29.4064H24.8922C24.5075 28.6316 24.2511 28.2165 23.903 27.8291C22.9137 26.8053 21.5397 26.3256 20.1383 26.7407C19.3047 27.0267 18.5445 27.3864 17.775 27.866C16.9781 28.4471 15.9248 29.1205 15.6042 30.1167C15.3568 30.9468 15.9248 31.5833 16.5385 32.0721Z" fill="#EC2427"/>
<path d="M46.8585 44.755L45.8418 44.8195L45.8143 44.4045L45.7227 43.2146L45.6952 42.1538C45.6952 39.6818 45.9792 37.3389 47.4814 35.4757L45.3746 34.0921C45.3105 34.0645 45.2464 34.0921 45.2189 34.0921C44.9349 34.3504 44.7059 34.6732 44.5136 34.9869C43.2404 37.1083 43.3045 39.9032 43.4602 42.5043L43.6159 44.1462C43.7442 45.4929 43.6159 47.1624 43.3594 48.1586C43.332 48.2877 43.1671 48.6382 43.1671 48.6382C43.1671 48.6382 43.4877 48.6382 43.8999 48.6382C43.4236 50.3723 42.6267 52.0418 41.6374 53.4531L42.2419 53.9696C41.097 54.9289 39.6589 55.5746 38.2849 55.9251C38.2208 56.4047 38.1933 56.7645 38.1933 56.9859L34.4286 57.2718C33.2836 57.364 32.1936 57.7883 31.2684 58.4248C31.2959 58.4525 30.728 58.0743 30.3433 57.9082C29.4548 57.4563 28.4289 57.2349 27.348 57.198L25.3054 57.0412L24.3528 56.949C24.3528 56.6907 24.2886 56.3402 24.2245 55.8882L24.0322 55.8605C22.7223 55.5377 21.3575 54.9658 20.24 54.0619L20.8812 53.4531C19.8919 52.0418 19.095 50.4 18.6187 48.6382C18.8385 48.6382 19.095 48.6382 19.3515 48.6382C19.095 47.4852 18.8111 45.6866 18.9027 44.4321L19.0584 42.6704C19.15 41.7111 19.1866 40.7149 19.15 39.7464C19.0859 37.8186 18.8019 35.9923 17.6478 34.5164C17.5195 34.3873 17.3913 34.129 17.1989 34.129L16.4295 34.6087L15.0372 35.5034C15.1929 35.6602 15.3212 35.8262 15.4494 36.0199C17.0157 38.4643 16.9791 41.7387 16.6585 44.7181V44.8103L15.6418 44.7826C15.7059 47.4114 16.0539 49.9203 17.0432 52.1341C17.0432 52.1618 17.0432 52.1987 17.0432 52.2263L16.8234 52.3555L15.9623 52.8351L16.3104 53.3793C17.4554 55.2518 19.3423 56.9213 21.2842 57.6592L21.3758 57.6869L21.788 59.2273L23.6017 59.4486L24.9115 59.5409L25.7084 62.4925C27.7144 62.8799 29.693 62.3357 31.2593 61.2104C31.2868 61.1827 31.5799 61.3395 31.7356 61.4687C33.1737 62.4003 34.9873 62.8523 36.801 62.4925C36.801 62.4925 37.5338 59.7346 37.5979 59.5409L39.7321 59.3841L40.7214 59.2549L41.1702 57.65C41.5183 57.5208 41.8755 57.3271 42.187 57.1703C43.8724 56.2756 45.4112 54.5415 46.3639 52.8997L46.4555 52.706L45.4662 52.1618C46.4463 49.8927 46.7944 47.3838 46.8585 44.755Z" fill="#EC2427"/>
<path d="M25.754 29.3419C25.6899 29.3419 25.6258 29.2773 25.5983 29.2127C25.5708 29.1205 25.5708 29.019 25.6258 28.9268L25.754 28.8345L25.6624 28.5117L25.3143 28.2258L25.4426 27.7738L25.3784 27.5801C25.3143 27.6078 25.2502 27.5801 25.2227 27.5524C25.1586 27.4878 25.1311 27.3587 25.1586 27.2665L25.1861 27.2388C24.9662 27.0451 24.7372 26.8883 24.5449 26.63C24.4167 26.5378 24.3525 26.3072 24.1602 26.2795C24.0319 26.215 23.9678 26.0858 23.9678 25.929V25.8368C23.7755 25.5139 23.6472 25.1634 23.519 24.8406L23.3266 24.6838C23.2992 24.5546 23.3266 24.3978 23.4182 24.2964H23.4457C23.0976 22.5346 23.7663 20.8282 25.2594 19.8043C26.0288 19.2878 26.8532 18.9373 27.7508 18.7805C27.7783 18.7528 27.815 18.6882 27.8424 18.6882C27.9066 18.6882 27.9707 18.6882 28.0348 18.7159L28.1905 18.6882C28.218 18.6237 28.2546 18.5591 28.3187 18.5314C28.4103 18.5038 28.5111 18.5038 28.5752 18.5591L28.6393 18.6514C28.7676 18.6237 28.9233 18.6514 29.0241 18.5868C29.0882 18.5591 29.1523 18.5868 29.2164 18.6145C29.2439 18.6421 29.2805 18.7067 29.2439 18.7436C29.2439 18.7436 29.2439 18.7713 29.2164 18.7713C29.6286 19.2509 29.8851 19.7951 30.05 20.4131L30.1141 18.7159L30.0866 18.5222H30.3064C30.1141 17.9411 30.2423 17.2678 30.7186 16.8804C30.8102 16.6867 30.8743 16.4653 30.9385 16.207C30.911 16.207 30.911 16.1793 30.8743 16.1425C30.6179 16.207 30.398 16.2716 30.169 16.3362V15.1832C30.3614 15.2754 30.5812 15.34 30.8102 15.4045C30.8377 15.4045 30.8377 15.3769 30.8743 15.34C30.8469 15.1186 30.7827 14.888 30.682 14.6666H31.7995C31.7079 14.888 31.6438 15.1186 31.6071 15.34L31.6346 15.3676C31.8544 15.34 32.1109 15.2385 32.3033 15.1739V16.2993C32.0834 16.207 31.8544 16.1425 31.6346 16.1056L31.6163 16.1425C31.6438 16.3638 31.7079 16.5944 31.8087 16.8158H31.7812C32.23 17.2032 32.3582 17.812 32.23 18.3562L32.2025 18.4853H32.459V18.6145L32.5506 20.1917C32.6788 19.8689 32.8071 19.5461 32.9994 19.2601C33.091 19.1033 33.2193 18.9373 33.3475 18.7805C33.32 18.7159 33.2559 18.6514 33.32 18.5868C33.3841 18.5222 33.4483 18.4945 33.5399 18.5222C33.5673 18.5499 33.604 18.5868 33.6315 18.6145L33.9154 18.6421C33.9429 18.5499 34.007 18.4853 34.1078 18.4484C34.1719 18.4484 34.236 18.4484 34.3001 18.513C34.3642 18.5776 34.3917 18.6421 34.3917 18.7067L34.52 18.7344C34.5474 18.6698 34.6116 18.6698 34.6482 18.6421C34.6757 18.6421 34.7398 18.6421 34.7764 18.6698L34.8406 18.7989C36.471 19.1218 38.1931 20.0811 38.8892 21.7506C39.2098 22.4885 39.3014 23.3924 39.109 24.2226C39.2006 24.2503 39.2006 24.3794 39.2373 24.444V24.6008L39.0449 24.7576C38.9167 25.1081 38.761 25.4309 38.5961 25.7538C38.6602 25.846 38.6236 26.0397 38.5686 26.1412C38.477 26.2334 38.3763 26.298 38.248 26.3349C37.9915 26.6577 37.7076 26.9805 37.4145 27.2665C37.442 27.3587 37.4145 27.4878 37.3504 27.5524C37.3229 27.5801 37.2862 27.5801 37.2221 27.5801L37.158 27.8384L37.2496 28.2258L36.9931 28.4471L36.8649 28.8622C36.929 28.8899 36.9931 28.9913 36.9931 29.0836C36.9931 29.1758 36.929 29.2773 36.8374 29.305H25.754V29.3419Z" fill="#B56D37"/>
<path d="M23.0435 31.9707L25.6632 35.7894L25.3334 36.0477L29.7668 41.1393L23.0709 41.2868L22.5305 41.6927L23.0709 42.2461L29.9592 42.4306L22.8236 51.47V51.9773L23.2816 51.839L31.2049 42.7996L39.0824 51.839L39.5587 51.9773V51.47L32.4415 42.4767L35.9222 42.5228V41.9694L39.4304 41.7296L35.9222 41.5728V41.0286L32.6705 41.0931L37.0672 36.0661L36.7466 35.7894L39.3114 31.9707L36.1054 35.3098L35.794 35.0515L31.2049 40.8625L26.6158 35.0515L26.2128 35.236L23.0435 31.9707Z" fill="#CFCFCE"/>
<path d="M37.2038 60.8414C36.7275 60.9982 36.2146 61.0627 35.7383 61.0351C35.1612 61.0074 34.5566 60.8783 33.9521 60.6477C32.9995 60.2972 32.23 59.8729 31.4973 59.4301C30.0958 58.6276 28.7859 57.8528 26.3311 57.9174C25.406 57.9451 24.4808 57.8897 23.5557 57.7606C22.7862 57.6683 22.026 57.5023 21.2565 57.3455L21.1008 56.7644C21.9344 56.9581 22.7313 57.1149 23.5557 57.2164C24.4442 57.3455 25.3693 57.4101 26.2945 57.3732C28.8134 57.3086 30.1508 58.0834 31.5522 58.8859C32.285 59.301 33.0178 59.7529 33.9796 60.0758C34.5566 60.2972 35.1612 60.4263 35.7016 60.4632C36.2787 60.5278 36.7825 60.4632 37.3596 60.2695L37.2038 60.8414Z" fill="#FFCB0B"/>
<path d="M36.8743 62.1513C35.9858 62.4096 35.0881 62.4096 34.2637 62.2159C33.2103 61.9945 32.2211 61.4779 31.2684 60.8323C29.2899 59.4856 26.9999 59.3564 24.7008 59.1904C23.7116 59.1258 22.6948 59.0613 21.7056 58.9045L21.5498 58.3234C22.5666 58.5171 23.6566 58.5816 24.71 58.6462C27.0366 58.803 29.3632 58.969 31.3417 60.3157C32.2943 60.9614 33.2836 61.4687 34.3095 61.6624C35.1705 61.8838 36.114 61.8561 37.0391 61.5702L36.8743 62.1513Z" fill="#FFCB0B"/>
<path d="M40.8316 58.8492C39.8424 59.006 38.789 59.0706 37.7722 59.172C36.4349 59.2643 35.125 59.3288 33.8793 59.6517L33.1465 59.3288C34.6121 58.8492 36.1784 58.7477 37.7356 58.6555C38.8165 58.5909 39.9065 58.5263 40.9232 58.3326L40.8316 58.8492Z" fill="#FFCB0B"/>
<path d="M41.2438 57.3085C40.4744 57.4653 39.6774 57.6313 38.8805 57.7236C37.9554 57.8527 37.0669 57.9173 36.1051 57.8804C34.2548 57.8804 33.0732 58.2678 32.0198 58.812L31.5069 58.526C32.6885 57.8527 33.9617 57.3362 36.0959 57.4007C37.0211 57.4284 37.9462 57.3731 38.8347 57.2439C39.6958 57.1148 40.5202 56.958 41.3537 56.7643L41.2438 57.3085Z" fill="#FFCB0B"/>
<path d="M30.8841 60.9983C30.0231 61.5425 29.1346 61.9575 28.2095 62.1881C27.3484 62.3818 26.4874 62.3818 25.6264 62.1236L25.4707 61.5794C26.3958 61.8653 27.2843 61.8653 28.182 61.6716C28.9514 61.5148 29.7117 61.192 30.4445 60.74L30.8841 60.9983Z" fill="#FFCB0B"/>
<path d="M29.3809 60.2326C29.0969 60.3617 28.8038 60.4909 28.4557 60.62C27.8512 60.8414 27.2741 60.9705 26.6696 61.0074C26.2207 61.072 25.7444 61.0074 25.2681 60.8506L25.1124 60.2695C25.6528 60.4632 26.1658 60.5278 26.7062 60.4909C27.2833 60.4632 27.8512 60.3341 28.4283 60.1035C28.5199 60.0758 28.584 60.0389 28.6847 60.0112L29.3809 60.2326Z" fill="#FFCB0B"/>
<path d="M27.6965 59.9744C27.6049 60.0021 27.5041 60.0021 27.4125 60.039C27.1285 59.9467 26.8721 59.8822 26.579 59.8822C26.295 59.8822 25.9744 59.9098 25.6904 60.0113C25.5989 59.9836 25.4981 59.9836 25.4065 59.9467C25.8187 59.8176 26.2034 59.753 26.6156 59.753C26.927 59.7438 27.3117 59.8729 27.6965 59.9744Z" fill="#FFCB0B"/>
<path d="M21.8156 56.5431L24.1972 56.1188L24.2888 56.6353L23.5835 56.7644L21.8156 56.5431Z" fill="#FFCB0B"/>
<path d="M18.0325 51.6915C18.5729 52.6508 19.3057 53.5824 20.1668 54.2927C21.0553 55.0029 23.5467 55.9345 23.5467 55.9345C23.5467 55.9345 22.53 56.1559 22.4292 56.1559C21.3117 55.7039 20.2309 55.0951 19.3973 54.3941C18.6004 53.7208 17.9592 52.9183 17.5196 51.9867L18.0325 51.6915Z" fill="#FFCB0B"/>
<path d="M16.658 52.4568C17.1984 53.3515 17.7755 54.1909 18.4716 54.9288C19.1403 55.639 19.9739 56.2478 20.9906 56.6629L21.2104 57.4377C20.1296 56.9212 19.1403 56.2478 18.2426 55.4453C17.4091 54.6705 16.6763 53.7758 16.1084 52.7151L16.658 52.4568Z" fill="#FFCB0B"/>
<path d="M18.6739 52.2999L20.7165 53.5175L20.3043 53.9049L19.8921 53.6466L18.6739 52.2999Z" fill="#FFCB0B"/>
<path d="M18.5729 48.6012C18.5088 48.3798 18.4813 48.1492 18.4172 47.891L18.2615 46.286L19.0584 48.6012H18.5729Z" fill="#FFCB0B"/>
<path d="M18.0051 44.8473C17.941 46.3877 18.0692 47.8358 18.4539 49.1825C18.802 50.4646 19.3149 51.6545 20.0844 52.7798L19.031 52.1065C18.518 51.2118 18.1425 50.2433 17.8494 49.2471C17.4647 47.8635 17.3364 46.3877 17.4005 44.8473H18.0051Z" fill="#FFCB0B"/>
<path d="M16.3737 44.7827C16.3096 46.3876 16.4653 47.9004 16.8501 49.3393C17.0699 50.1787 17.363 50.9811 17.7111 51.7191L17.1981 52.005C16.7859 51.1379 16.4653 50.2432 16.2455 49.3116C15.8974 47.8635 15.7692 46.3231 15.8333 44.755L16.3737 44.7827Z" fill="#FFCB0B"/>
<path d="M17.1073 34.1566C19.3698 37.016 19.15 40.3182 18.8935 43.6572C18.7653 44.8102 18.6737 46.0001 18.7011 47.1531L18.1882 45.1331C18.2157 44.6534 18.2523 44.1738 18.2798 43.6849C18.4996 40.4381 18.7286 37.1636 16.6219 34.378L17.1073 34.1566Z" fill="#FFCB0B"/>
<path d="M15.6415 35.0884C17.7482 37.9109 17.5559 40.7703 17.3269 43.8234C17.2994 44.1463 17.2994 44.4322 17.2628 44.755L16.7223 44.7274C16.7223 44.4691 16.7498 44.2108 16.7498 43.9525C16.9422 40.9363 17.1345 38.1046 15.1194 35.3835L15.6415 35.0884Z" fill="#FFCB0B"/>
<path d="M18.829 33.4464C19.0489 33.3173 19.1771 33.1605 19.2412 32.9945C19.3328 32.7085 19.1771 32.3488 18.829 31.9337C18.5725 31.6478 18.2886 31.4172 17.968 31.1958C17.6199 30.9375 17.2993 30.6793 17.0154 30.3564C16.7314 30.0336 16.6673 29.6831 16.6948 29.3326C16.6948 29.0466 17.1436 28.5301 16.7864 28.8529C16.4658 29.1758 15.733 30.3288 16.3742 31.0667C16.6581 31.4172 17.0428 31.6478 17.3909 31.8691C17.6474 32.0259 17.9039 32.192 18.1878 32.4134C18.3802 32.5702 18.5359 32.7362 18.6367 32.9299C18.7649 33.1328 18.829 33.2896 18.829 33.4464ZM17.4001 28.3087C17.2718 28.5301 17.1802 28.7607 17.1436 29.019C17.1161 29.2772 17.2077 29.6001 17.4642 29.9506C17.7482 30.3011 18.1329 30.5962 18.4809 30.8822C18.7374 31.0759 19.0214 31.2973 19.2504 31.5279C19.5984 31.8507 19.7633 32.2012 19.7908 32.5517C19.7908 32.7085 19.7908 32.8745 19.7267 33.0037C19.6626 33.1328 19.5984 33.262 19.4702 33.3911C19.2137 33.677 18.7649 33.9353 18.2245 33.9076C18.0321 33.9076 18.2245 33.8431 18.3527 33.6863C18.4443 33.5571 18.2886 33.4003 18.2245 33.2712C18.1329 33.1144 18.0046 32.9852 17.8398 32.8561C17.6199 32.6347 17.3634 32.4687 17.107 32.3119C16.7223 32.0905 16.3742 31.8599 16.0536 31.4725C15.1651 30.4118 16.2734 29.2219 16.8871 28.6777L17.4001 28.3087Z" fill="#FFCB0B"/>
<path d="M23.8664 29.3419C23.4175 28.3827 22.7214 27.5802 22.0161 27.3219C21.5398 27.1282 21.0268 27.1005 20.4497 27.1651C20.6421 27.1928 20.7978 27.2573 20.9902 27.3588C21.5031 27.6171 22.1718 28.4195 22.7397 29.3788H22.0985C21.6497 28.6409 21.0818 27.8384 20.6971 27.6171C20.2482 27.3588 19.2315 27.2942 19.2315 27.2666C20.6329 26.7869 21.6863 26.7869 22.5473 27.1374C23.3442 27.4879 24.077 28.4195 24.5259 29.3512H23.8664V29.3419Z" fill="#FFCB0B"/>
<path d="M37.0388 59.9743C36.9472 60.0019 36.819 60.0019 36.7182 60.0388C36.4617 59.9743 36.2052 59.9466 35.9488 59.9466C35.6923 59.9466 35.4725 60.0112 35.216 60.0757C35.1244 60.0757 34.9961 60.0481 34.8954 60.0112C35.2435 59.9189 35.6007 59.7898 35.9488 59.7898C36.3335 59.8082 36.6907 59.8728 37.0388 59.9743Z" fill="#FFCB0B"/>
<path d="M38.2475 56.1465L40.5009 56.5431L38.7605 56.7922L38.1834 56.663L38.2475 56.1465Z" fill="#FFCB0B"/>
<path d="M44.9802 51.9772C44.5314 52.9088 43.8627 53.739 43.0658 54.4216C42.2689 55.1318 41.2155 55.7037 40.1347 56.1557L38.9531 55.962C40.2263 55.6391 41.4445 55.0303 42.333 54.3201C43.2216 53.6099 43.9269 52.6782 44.5039 51.6913L44.9802 51.9772Z" fill="#FFCB0B"/>
<path d="M46.382 52.7428C45.8049 53.8036 45.0721 54.7352 44.2111 55.5008C43.3501 56.3033 42.3608 56.9489 41.2433 57.4931L41.4998 56.7183C42.5165 56.3309 43.3134 55.7222 44.0187 54.9842C44.7241 54.2463 45.3286 53.3793 45.8324 52.4753L46.382 52.7428Z" fill="#FFCB0B"/>
<path d="M42.2321 53.9325L41.7832 53.582L43.6335 52.4567L42.2321 53.9325Z" fill="#FFCB0B"/>
<path d="M43.4785 48.6012L44.248 46.5812L43.8999 48.6012H43.4785Z" fill="#FFCB0B"/>
<path d="M43.1947 52.2633L43.4787 52.0696L42.7459 52.5492L42.4619 52.7429C43.1947 51.6545 43.7077 50.4646 44.0283 49.2471C44.413 47.8635 44.5412 46.3877 44.4771 44.8473H45.0542C45.1183 46.4246 44.9901 47.9004 44.6053 49.3117C44.3489 50.2709 43.9642 51.2026 43.4878 52.0696" fill="#FFCB0B"/>
<path d="M46.6376 44.7828C46.7017 46.3878 46.5734 47.9282 46.2254 49.404C46.0055 50.2987 45.6849 51.1658 45.2727 52.0328L44.7598 51.7469C45.1079 51.009 45.401 50.2065 45.6208 49.404C46.0055 47.9559 46.1613 46.4616 46.0697 44.829L46.6376 44.7828Z" fill="#FFCB0B"/>
<path d="M45.7772 34.3504C43.7071 37.1083 43.9269 40.3552 44.1468 43.602C44.1743 44.1831 44.2109 44.6904 44.2384 45.2069L43.7254 47.1993C43.7529 46.0094 43.7071 44.7365 43.6064 43.5466C43.3499 40.2353 43.0568 36.9608 45.3192 34.129L45.7772 34.3504Z" fill="#FFCB0B"/>
<path d="M45.2286 43.7218C45.2927 44.0723 45.3202 44.3951 45.3202 44.7457L45.2286 43.7218Z" fill="#FFCB0B"/>
<path d="M45.163 44.7549C45.1355 44.4321 45.1355 44.0816 45.0989 43.7587C44.9065 40.7056 44.7141 37.8831 46.7293 35.0237L47.2697 35.3465C45.3278 38.0399 45.4836 40.8716 45.6759 43.8878C45.7034 44.1738 45.6851 44.4782 45.7217 44.7365L45.163 44.7549Z" fill="#FFCB0B"/>
<path d="M45.7136 28.9268C46.2265 29.5356 46.767 30.4026 46.1258 31.1405C45.8418 31.4911 45.4571 31.7217 45.109 31.943C44.8526 32.0998 44.5961 32.2659 44.3121 32.4872C44.1198 32.644 43.9641 32.8101 43.8633 33.0038C43.7717 33.1606 43.7076 33.3266 43.7076 33.4834C43.4878 33.3543 43.3595 33.1975 43.2954 33.0314C43.2038 32.7455 43.3595 32.3858 43.7076 31.9707C43.9641 31.6848 44.248 31.4542 44.5686 31.2328C44.9167 30.9745 45.2373 30.7162 45.5212 30.3934C45.8052 30.0706 45.8693 29.7201 45.8418 29.3696C45.8052 29.2404 45.7777 29.0836 45.7136 28.9268ZM44.0831 33.7048C44.0831 33.548 44.1473 33.4188 44.2114 33.2897C44.303 33.1329 44.4312 33.0038 44.5961 32.8746C44.8526 32.6533 45.109 32.4872 45.3655 32.3304C45.7502 32.1091 46.0983 31.8785 46.4189 31.4911C47.3074 30.4303 46.1624 29.2773 45.622 28.6962C45.4938 28.5025 45.0174 28.3457 45.0174 28.3457C45.1457 28.5671 45.2739 28.7977 45.3014 29.0836C45.3289 29.3419 45.2373 29.6647 44.9808 30.0152C44.6969 30.3657 44.3121 30.6609 43.9641 30.9468C43.7076 31.1405 43.4236 31.3619 43.1946 31.5925C42.8466 31.9154 42.6817 32.2659 42.6542 32.6164C42.6542 32.7732 42.6542 32.9392 42.7183 33.0683C42.7824 33.1975 42.8466 33.3266 42.9748 33.4557C43.2313 33.7417 43.6801 33.9354 44.2205 33.9723C44.2114 33.9631 44.0831 33.7417 44.0831 33.7048Z" fill="#FFCB0B"/>
<path d="M39.6495 29.3419C40.2266 28.4103 40.8586 27.6447 41.3715 27.3865C41.5639 27.2942 41.7562 27.2297 41.912 27.1928C41.3349 27.1282 40.8311 27.1651 40.3456 27.3496C39.677 27.6078 38.9717 28.4103 38.532 29.3419H37.8633C38.3121 28.4472 39.0083 27.5156 39.8052 27.1928C40.6387 26.8423 41.7196 26.8054 43.1211 27.3219C43.1211 27.3219 42.0677 27.4141 41.6555 27.6724C41.2708 27.8938 40.7029 28.6317 40.2815 29.3696L39.6495 29.3419Z" fill="#FFCB0B"/>
<path d="M37.1033 27.6078L37.0758 27.7646L36.343 28.0229L36.856 28.604C36.8834 28.5763 36.8834 28.5763 36.9201 28.5394C36.8926 28.6317 36.8926 28.7331 36.856 28.8254L35.5827 28.6317L34.4011 28.4749L33.1554 28.3826C32.4226 28.3181 31.6898 28.3181 30.9204 28.3181L29.6746 28.3457C28.3648 28.4103 27.0916 28.5671 25.8458 28.7977C25.8183 28.7331 25.7817 28.6409 25.7542 28.5394C25.9099 28.3457 26.0748 28.1889 26.2305 27.9952C26.0107 27.903 25.7542 27.8015 25.4977 27.7369L25.4336 27.5801C28.2365 26.6485 31.7448 26.4272 34.74 27.0359C35.5736 27.1927 36.3338 27.3772 37.1033 27.6078Z" fill="#FFCB0B"/>
<path d="M31.6161 35.4388L31.5519 34.2858L31.5245 32.7455H33.503C32.9626 32.5518 32.4496 32.1643 32.0649 31.657H31.5245L31.497 31.5279C31.4695 31.4633 31.4329 31.3988 31.3687 31.3342C31.2772 31.2696 31.0848 31.242 30.984 31.3065C30.8558 31.3711 30.7917 31.5002 30.7917 31.6294H28.9139V32.7178H30.7276V34.3873L30.7001 35.5126C30.6726 35.9646 30.636 36.4442 30.5444 36.8593C30.4802 37.1822 30.2879 37.4681 30.3886 37.8186C30.4802 38.3628 31.1581 38.658 31.5703 38.3997C31.8909 38.1783 31.955 37.8186 31.9183 37.4681C31.7443 36.8224 31.6527 36.1122 31.6161 35.4388Z" fill="#FFCB0B"/>
<path d="M31.6165 51.1379L31.5523 49.9849L31.5249 48.4445H33.5034C32.963 48.2508 32.45 47.8634 32.0653 47.3561H31.5249C31.5249 47.2915 31.4974 47.2269 31.4607 47.1624C31.3692 47.0056 31.1127 46.941 30.9478 47.0332C30.8196 47.0978 30.7554 47.2269 30.7554 47.3561H28.9052V48.4445H30.7188V49.4038L30.6913 50.8796C30.6638 51.4884 30.6272 52.0972 30.499 52.6783C30.4074 53.0011 30.2425 53.3516 30.4074 53.7021C30.5997 54.2187 31.1768 54.3755 31.5523 54.1172C31.8363 53.8958 31.9004 53.5361 31.8729 53.1856C31.7447 52.5215 31.6531 51.8481 31.6165 51.1379Z" fill="#FFCB0B"/>
<path d="M39.0822 24.3332C39.0822 24.3332 39.0547 24.1764 39.018 24.1118C39.0455 23.9181 39.0822 23.6967 39.0822 23.4661C39.0822 23.4938 39.0547 22.9865 39.0547 22.7928C39.0547 22.7282 39.0272 22.5714 38.9906 22.5068C38.9631 22.3131 38.7982 21.9257 38.7341 21.732C38.6059 21.4461 38.2578 20.9295 38.0654 20.6713C37.8089 20.3484 37.3601 20.0256 37.1128 19.8319C36.7922 19.6105 36.2793 19.3799 36.0319 19.2508C35.6472 19.094 35.2625 18.9925 34.887 18.9003C34.9511 19.0571 35.0427 19.2508 35.0793 19.3799C35.1434 19.6382 35.2076 20.1824 35.235 20.4407C35.235 20.6989 35.235 21.2155 35.2076 21.4645C35.1801 21.7136 35.116 22.267 35.0793 22.5253C35.0518 22.6821 34.9877 23.0418 34.9511 23.1986C34.9236 23.42 34.7587 24.0657 34.7587 24.0657C34.887 24.1579 34.4381 24.0011 34.4748 23.6506C34.5022 23.3278 34.6946 22.3685 34.6946 22.3685C34.8228 21.2432 35.0427 19.8319 34.5022 18.8357L34.3465 18.7711L34.2824 18.8634C34.2183 18.928 34.0901 18.928 34.0259 18.8911C33.9618 18.8634 33.9343 18.7988 33.8977 18.6974L33.6779 18.6697C34.3465 19.9518 33.9618 21.6859 33.742 23.0695C33.7145 23.3554 33.6504 24.1302 33.6504 24.2594C33.6504 24.4807 33.8702 24.6468 34.0626 24.7759C34.0626 24.9327 34.0626 25.1264 34.2183 25.2279C34.2458 25.1356 34.3099 25.0342 34.374 24.9696C34.5297 24.8405 34.7587 24.8128 34.9786 24.8774C35.1343 24.9419 35.1343 25.0987 35.1343 25.2648C35.1343 25.523 34.9144 25.7444 34.7221 25.9104C34.5022 26.0396 34.1816 26.1687 33.8885 26.0396C33.6046 25.975 33.5405 25.6891 33.3481 25.4954C33.1557 25.7536 32.9359 25.9104 32.6428 25.975C32.3222 26.0027 32.0657 25.9104 31.8734 25.6522C31.6535 25.3939 31.4887 25.0434 31.6535 24.7206C31.7451 24.5638 31.9375 24.4992 32.1298 24.4623C32.2856 24.4623 32.4138 24.5545 32.5146 24.6837C32.6062 24.8405 32.6703 25.0342 32.6062 25.2279C32.6703 25.2279 32.6978 25.2279 32.7619 25.2002C32.8535 25.1356 32.9176 25.0434 32.9176 24.9143C32.9451 24.822 32.826 24.6283 32.9817 24.656C33.1099 24.656 33.2657 24.5269 33.3023 24.3977C33.3664 24.2686 33.3298 24.0749 33.2748 23.9458C33.1832 23.789 33.0183 23.7244 32.826 23.7244C32.7344 23.6598 32.9176 23.5952 32.9176 23.503C32.9451 23.4384 32.9176 23.3462 32.8901 23.2816C32.8626 23.2171 32.7619 23.1525 32.6978 23.1525C32.6062 23.4108 32.3772 23.7336 32.0932 23.7613C31.9375 23.789 31.8092 23.7336 31.681 23.6321C31.5528 23.5307 31.5253 23.3739 31.5894 23.2171C31.7177 22.9311 32.0016 22.8297 32.2581 22.802C32.1298 22.6729 32.0016 22.5806 31.8092 22.5806L31.7451 22.4515C31.7451 22.4238 31.7726 22.3869 31.7726 22.3592V22.0733L31.8642 20.6252L32.0566 18.9556C32.084 18.8265 32.1207 18.7343 32.1207 18.6328C32.2123 18.4391 32.2489 18.2177 32.2489 17.9871C32.2489 17.5075 32.0291 17.0924 31.736 16.8618V16.8341C31.6719 16.6404 31.6077 16.4836 31.5803 16.2899C31.6627 16.2438 31.7177 16.1608 31.736 16.1331C31.7451 16.1147 31.7451 16.1147 31.736 16.1331C31.9283 16.1608 32.1207 16.1977 32.2764 16.2899V15.3122C32.1207 15.3768 31.736 15.5059 31.736 15.5059C31.6902 15.4136 31.6261 15.3399 31.5436 15.2937C31.5436 15.2845 31.5436 15.2845 31.5528 15.2753C31.5803 15.0816 31.6444 14.8879 31.7085 14.7311H30.82C30.8841 14.9248 30.9482 15.0816 30.9757 15.2753C30.8841 15.3214 30.8017 15.3952 30.7559 15.5059C30.5635 15.4782 30.4078 15.4136 30.2429 15.3491V16.2438C30.3986 16.1792 30.591 16.1516 30.7833 16.1147C30.8108 16.1423 30.9116 16.2069 30.9757 16.2438C30.9482 16.4375 30.8841 16.5943 30.82 16.7603C30.82 16.7603 30.82 16.7603 30.82 16.788C30.4994 16.9817 30.2796 17.4337 30.2796 17.941C30.2796 18.1624 30.3437 18.393 30.4078 18.5867C30.4078 18.6789 30.4353 18.7435 30.4719 18.8726C30.6643 19.9979 30.7925 21.1232 30.8566 22.3039C30.8566 22.3316 30.8841 22.3685 30.8841 22.3961C30.8566 22.4238 30.82 22.4884 30.82 22.5253C30.6643 22.5529 30.4994 22.6175 30.3712 22.7835C30.6276 22.8112 30.8475 22.9127 31.0123 23.1341C31.0765 23.2632 31.0765 23.42 31.0123 23.5491C30.9207 23.7059 30.7284 23.8074 30.4994 23.7705C30.2154 23.7059 30.0231 23.42 29.9223 23.1617C29.8582 23.1617 29.7941 23.1894 29.7666 23.254C29.7025 23.3185 29.675 23.4753 29.7391 23.5768C29.7391 23.6414 29.8948 23.669 29.8307 23.7336C29.6384 23.7336 29.446 23.8258 29.3544 24.0195C29.2903 24.1487 29.2903 24.3424 29.3544 24.4715C29.4185 24.6283 29.5742 24.6652 29.7391 24.6929C29.7391 24.822 29.7116 25.0157 29.7666 25.1449C29.8307 25.2371 29.9223 25.274 30.0231 25.274C29.9956 25.1818 29.9956 25.0526 30.0231 24.9512C30.0506 24.7944 30.2154 24.6007 30.3712 24.5361C30.4994 24.4715 30.6551 24.5361 30.7833 24.6007C30.9757 24.7298 31.0398 24.9512 31.0032 25.1818C30.9116 25.5323 30.6185 25.9566 30.2338 26.0211C29.8216 26.1134 29.4643 25.8643 29.2445 25.5692L28.9239 26.0211C28.7315 26.1779 28.4751 26.2425 28.2186 26.1779C27.9346 26.0857 27.614 25.892 27.4858 25.5968C27.4583 25.44 27.3942 25.1818 27.5499 25.0526C27.6782 24.9604 27.898 24.9881 28.0262 25.0526C28.182 25.1172 28.3102 25.2463 28.3468 25.4031H28.3743C28.5025 25.3109 28.5025 25.1449 28.5025 24.9881L28.53 24.9604C28.6216 24.8958 28.7224 24.8313 28.814 24.739C28.9056 24.6468 29.0063 24.5176 29.0063 24.4162C29.0063 24.2225 28.8781 23.5491 28.7865 23.0972C28.53 21.7505 28.2461 20.0164 28.9147 18.7619C28.8506 18.7619 28.759 18.7619 28.6583 18.7896C28.6583 18.8818 28.6308 18.9464 28.5667 18.9833C28.5025 19.0479 28.3743 19.0479 28.3102 19.011C28.2461 18.9833 28.2186 18.9187 28.1819 18.8542C28.1545 18.8542 28.0904 18.8542 28.0537 18.8818C28.0537 18.8818 27.7972 19.5275 27.7331 19.878C27.5774 21.197 27.8247 22.4423 28.0537 23.669C28.0537 23.669 28.2094 24.0564 27.7972 24.3424C27.669 24.2501 26.7439 19.7489 27.6415 18.8173C27.2293 18.9095 26.753 19.0386 26.4599 19.1678C26.1759 19.2969 25.6264 19.5552 25.379 19.7489C25.1226 19.9426 24.6462 20.3577 24.4264 20.5883C24.2066 20.8189 23.886 21.2985 23.7577 21.649C23.6661 21.9349 23.4738 22.5161 23.4371 22.8389C23.4097 22.9957 23.4097 23.2909 23.4097 23.4477C23.4097 23.6414 23.4371 23.9273 23.4738 24.1579V24.2501C23.4738 24.2501 23.5013 24.3147 23.4097 24.3424C23.3822 24.4346 23.3456 24.4992 23.3456 24.6283L23.5379 24.7851C23.6661 25.108 23.7944 25.4585 23.9867 25.7444C24.0142 25.7167 24.0783 25.7167 24.1425 25.7167C24.2707 25.7167 24.3623 25.7813 24.4264 25.9104C24.4905 26.0396 24.4539 26.2333 24.3989 26.3624C24.5547 26.5838 24.747 26.7775 24.9394 26.9712C25.0951 27.0634 25.26 27.1003 25.4523 27.0634C25.837 26.9343 26.2492 26.8421 26.6339 26.7129C29.4368 25.9381 32.9451 25.9104 35.7571 26.6853L36.9388 26.9712C37.1311 26.9989 37.351 26.9989 37.5158 26.9066C37.928 26.5192 38.0929 26.2333 38.0929 26.2333C38.0288 26.1041 38.0288 25.9104 38.1204 25.7813C38.212 25.6891 38.3402 25.6522 38.4685 25.6891C38.6242 25.3662 38.7891 25.0434 38.9173 24.6929L39.1096 24.5361C39.1463 24.49 39.1463 24.3977 39.0822 24.3332ZM26.8355 26.4823C26.6431 26.5746 26.4874 26.7037 26.2584 26.6391C26.066 26.6115 25.8737 26.4823 25.7454 26.2886L25.718 26.3163C25.6538 26.5377 25.5897 26.7959 25.3332 26.8974C25.1409 26.962 25.0126 26.8697 24.8844 26.7406C24.7928 26.6115 24.6646 26.5192 24.7562 26.3532C24.7562 26.2886 24.8203 26.2241 24.8844 26.1964C24.9485 26.1687 25.0401 26.1687 25.1042 26.1964C25.1684 26.2241 25.2325 26.3255 25.26 26.3901C25.3516 26.261 25.3516 26.0673 25.26 25.9381C25.2325 25.9104 25.1684 25.8736 25.1958 25.8459C25.26 25.8182 25.3241 25.7813 25.3882 25.7167C25.4157 25.7167 25.4157 25.6891 25.4157 25.6891C25.4157 25.6614 25.4157 25.6614 25.4157 25.6614C25.4157 25.6337 25.4157 25.6337 25.4157 25.6337C25.4432 25.5415 25.5073 25.4124 25.5714 25.2832C25.5714 25.3109 25.5714 25.3109 25.5714 25.3478C25.6355 25.5046 25.8279 25.5692 25.9836 25.5692C26.0477 25.5968 25.9836 25.6983 25.9836 25.7629C25.9836 25.8274 26.0111 25.892 26.0752 25.892L26.2034 25.9197C26.1118 25.6983 26.2034 25.44 26.3591 25.2463C26.4874 25.1541 26.6156 25.0895 26.7439 25.1541C27.0278 25.3109 27.0278 25.6337 27.0919 25.892C27.156 26.1318 27.0278 26.3532 26.8355 26.4823ZM27.0553 25.0711C26.9271 25.0434 26.8355 24.9143 26.7988 24.7851C26.7713 24.6283 26.8263 24.4992 26.9545 24.3977C27.0186 24.3332 27.1102 24.3332 27.211 24.3701C27.3026 24.3977 27.3667 24.4623 27.4308 24.5269C27.495 24.656 27.495 24.8128 27.4034 24.9143C27.3118 25.0711 27.1835 25.1356 27.0553 25.0711ZM31.2963 24.5914C31.1406 24.5914 31.0123 24.5269 30.9116 24.4346C30.82 24.3055 30.7833 24.1118 30.8475 23.9827C30.9116 23.8258 31.0673 23.7244 31.2322 23.6967C31.3879 23.6967 31.5161 23.7613 31.6169 23.8535C31.7085 23.9827 31.7451 24.1764 31.681 24.3055C31.6169 24.4623 31.4612 24.5545 31.2963 24.5914ZM35.1251 24.6837C35.1526 24.5545 35.2534 24.4623 35.3816 24.4254C35.5098 24.3885 35.6381 24.4531 35.7022 24.5822C35.7663 24.6468 35.7663 24.7759 35.7297 24.8405C35.7022 24.9327 35.6381 25.0342 35.5739 25.0618C35.4457 25.0895 35.3175 25.0895 35.2534 25.0342C35.1251 24.9419 35.0885 24.8128 35.1251 24.6837ZM37.6441 26.5746C37.5158 26.7037 37.3876 26.7959 37.1952 26.7314C36.9388 26.6391 36.8746 26.3809 36.8105 26.1503L36.783 26.1226C36.6548 26.3163 36.4625 26.4454 36.2701 26.4731C36.0503 26.5377 35.8854 26.4085 35.693 26.3163C35.5007 26.1872 35.3724 25.9658 35.4091 25.7075C35.4732 25.4493 35.4732 25.1264 35.7571 24.9696C35.8854 24.905 36.0136 24.9696 36.1419 25.0618C36.2976 25.2556 36.3983 25.5138 36.2976 25.7352L36.4258 25.7075C36.4899 25.7075 36.5174 25.643 36.5174 25.5784C36.5174 25.5138 36.4533 25.4216 36.5174 25.3847C36.6731 25.3847 36.8655 25.3201 36.9296 25.1633C36.9296 25.1356 36.9296 25.1356 36.9296 25.0987C36.9937 25.2279 37.0578 25.357 37.0853 25.4493C37.0853 25.4493 37.0853 25.4493 37.0853 25.4769C37.0853 25.4769 37.0853 25.4769 37.0853 25.5046C37.0853 25.5046 37.0853 25.5323 37.1128 25.5323C37.1769 25.5968 37.241 25.6245 37.3052 25.6614C37.3326 25.6891 37.2777 25.726 37.241 25.7536C37.1494 25.8828 37.1494 26.0765 37.241 26.2056C37.2685 26.141 37.3326 26.0488 37.3968 26.0119C37.4609 25.9842 37.5525 25.9842 37.6166 26.0119C37.6807 26.0396 37.7448 26.1041 37.7448 26.1687C37.8639 26.3532 37.7357 26.4547 37.6441 26.5746Z" fill="#FFCB0B"/>
<path d="M29.1881 25.348C29.3298 25.348 29.4446 25.2241 29.4446 25.0713C29.4446 24.9184 29.3298 24.7946 29.1881 24.7946C29.0465 24.7946 28.9317 24.9184 28.9317 25.0713C28.9317 25.2241 29.0465 25.348 29.1881 25.348Z" fill="#FFCB0B"/>
<path d="M33.3561 25.348C33.4978 25.348 33.6126 25.2241 33.6126 25.0713C33.6126 24.9184 33.4978 24.7946 33.3561 24.7946C33.2145 24.7946 33.0996 24.9184 33.0996 25.0713C33.0996 25.2241 33.2145 25.348 33.3561 25.348Z" fill="#FFCB0B"/>
</g>
</g>
<defs>
<clipPath id="clip0_228_7232">
<rect width="286" height="78" fill="white"/>
</clipPath>
<clipPath id="clip1_228_7232">
<rect width="34" height="48.5714" fill="white" transform="translate(14.25 14.6666)"/>
</clipPath>
</defs>
</svg>
