<svg width="56" height="80" viewBox="0 0 56 80" fill="none" xmlns="http://www.w3.org/2000/svg">
<path d="M3.76951 28.6679L5.71571 30.096L6.13814 30.4606C6.34936 30.7189 6.60583 30.9924 6.39462 31.357C6.13814 31.7824 5.71571 31.9343 5.23293 31.9343C5.97219 32.0406 6.69635 31.9343 7.33 31.7216C8.28047 31.4026 9.3818 30.8253 9.69863 29.7618C9.84949 29.0174 9.3818 28.4401 8.85377 27.9083L7.11878 26.3283L6.27392 25.5383C5.85149 25.0066 5.27819 24.5812 5.11224 23.9583C4.90102 23.2139 5.21785 22.5758 5.85149 22.1049C6.74161 21.2541 7.9033 20.8895 9.1555 21.1022C10.5284 21.2541 11.5694 22.3783 12.5651 24.2774H9.9551V56.956C10.106 58.3385 10.4831 59.6603 11.162 60.8756C12.5349 63.5799 15.2657 65.2054 18.0416 65.6916L20.1387 66.117C21.6625 66.4816 23.1862 66.8614 24.6044 67.5906C26.0225 68.2743 27.3351 69.8087 27.9084 71.2368C28.4817 69.8543 29.6886 68.4414 31.1068 67.697C32.525 66.9526 34.0487 66.5272 35.5725 66.1626L38.1976 65.6308C39.3593 65.3726 40.4606 64.9472 41.5016 64.3091C44.1267 62.6683 45.4996 59.9793 45.8617 57.1231V24.2774H43.4478C44.1871 22.8037 44.7151 22.1049 45.4996 21.6339C46.5557 20.9503 48.2756 20.8439 49.3317 21.5276C49.8597 21.8466 50.3877 22.272 50.7498 22.8037C51.0063 23.3354 50.961 24.0191 50.599 24.4901C49.8144 25.4928 48.8187 26.3891 47.9135 27.1943C47.2799 27.8324 46.3897 28.4097 46.2841 29.306C46.2389 29.9441 46.601 30.4758 47.0686 30.886C48.1247 31.676 49.3769 32.0558 50.7498 31.8887C50.4933 31.8887 50.2821 31.8431 50.0709 31.7368C49.8597 31.5849 49.6032 31.4178 49.5429 31.0987C49.5429 30.6278 49.9653 30.3087 50.2821 30.0353L51.9568 28.8199C52.6357 28.3489 53.3749 27.6501 53.6917 26.9208C54.2198 25.7054 53.4805 24.5964 52.6357 23.7001C51.474 22.591 50.267 21.6947 48.9092 20.9958C47.9588 20.5249 46.963 20.0387 45.922 19.7804C44.3983 19.4158 42.7689 19.7804 41.5167 20.5249C40.355 21.1629 39.5252 22.272 38.5295 24.2774H17.5287C16.895 23.0012 16.4726 22.3176 15.8993 21.6795C14.2699 19.9931 12.0069 19.2031 9.69863 19.8868C8.32573 20.3578 7.07352 20.9503 5.80623 21.7403C4.49368 22.6974 2.7587 23.8064 2.23066 25.4472C1.82331 26.8145 2.7587 27.8628 3.76951 28.6679Z" fill="#EC2427"/>
<path d="M53.7073 49.5574L52.0327 49.6638L51.9874 48.9801L51.8366 47.0203L51.7913 45.2732C51.7913 41.2016 52.259 37.3428 54.7332 34.274L51.2633 31.9951C51.1577 31.9495 51.0521 31.9951 51.0068 31.9951C50.5391 32.4205 50.1619 32.9522 49.8451 33.4688C47.7481 36.963 47.8537 41.5663 48.1101 45.8505L48.3666 48.5547C48.5778 50.7728 48.3666 53.5226 47.9442 55.1634C47.8989 55.3761 47.6274 55.9534 47.6274 55.9534C47.6274 55.9534 48.1554 55.9534 48.8343 55.9534C48.0498 58.8095 46.7372 61.5593 45.1079 63.8838L46.1036 64.7345C44.2177 66.3145 41.8491 67.378 39.5861 67.9553C39.4805 68.7453 39.4352 69.3378 39.4352 69.7024L33.2345 70.1734C31.3487 70.3253 29.5534 71.0241 28.0296 72.0724C28.0749 72.118 27.1395 71.4951 26.5058 71.2216C25.0424 70.4772 23.3527 70.1126 21.5724 70.0518L18.2081 69.7936L16.6391 69.6416C16.6391 69.2163 16.5335 68.639 16.4278 67.8945L16.111 67.849C13.9536 67.3172 11.7057 66.3753 9.86508 64.8865L10.9212 63.8838C9.29178 61.5593 7.97923 58.8551 7.19472 55.9534C7.5568 55.9534 7.97923 55.9534 8.40166 55.9534C7.97923 54.0543 7.51154 51.0918 7.66241 49.0257L7.91888 46.124C8.06975 44.544 8.1301 42.9032 8.06975 41.308C7.96414 38.1328 7.49645 35.1247 5.59552 32.694C5.3843 32.4813 5.17309 32.0559 4.85626 32.0559L3.58897 32.8459L1.29578 34.3195C1.55225 34.5778 1.76347 34.8513 1.97468 35.1703C4.55453 39.1963 4.49418 44.5895 3.96614 49.4966V49.6486L2.29151 49.603C2.39711 53.9328 2.97041 58.0651 4.59979 61.7113C4.59979 61.7568 4.59979 61.8176 4.59979 61.8632L4.2377 62.0759L2.81954 62.8659L3.39284 63.7622C5.27869 66.8463 8.38657 69.5961 11.585 70.8115L11.7358 70.857L12.4148 73.3941L15.4019 73.7588L17.5594 73.9107L18.8719 78.7722C22.1759 79.4103 25.4347 78.514 28.0145 76.6605C28.0598 76.6149 28.5425 76.8732 28.799 77.0859C31.1677 78.6203 34.1548 79.3647 37.142 78.7722C37.142 78.7722 38.349 74.2297 38.4546 73.9107L41.9698 73.6524L43.5992 73.4397L44.3384 70.7963C44.9117 70.5836 45.5001 70.2645 46.0131 70.0063C48.789 68.5326 51.3236 65.6765 52.8927 62.9722L53.0435 62.6532L51.4141 61.7568C53.0284 58.0195 53.6017 53.8872 53.7073 49.5574Z" fill="#EC2427"/>
<path d="M18.9483 24.171C18.8427 24.171 18.7371 24.0646 18.6919 23.9583C18.6466 23.8063 18.6466 23.6392 18.7371 23.4873L18.9483 23.3354L18.7975 22.8037L18.2242 22.3327L18.4354 21.5883L18.3298 21.2692C18.2242 21.3148 18.1186 21.2692 18.0733 21.2237C17.9677 21.1173 17.9224 20.9046 17.9677 20.7527L18.013 20.7071C17.6509 20.3881 17.2737 20.1298 16.9569 19.7044C16.7457 19.5525 16.6401 19.1727 16.3232 19.1271C16.112 19.0208 16.0064 18.8081 16.0064 18.5498V18.3979C15.6896 17.8662 15.4784 17.2888 15.2672 16.7571L14.9503 16.4988C14.9051 16.2862 14.9503 16.0279 15.1012 15.8608H15.1465C14.5732 12.959 15.6745 10.1485 18.1337 8.46212C19.4009 7.61135 20.7588 7.03404 22.2373 6.77577C22.2825 6.73019 22.3429 6.62385 22.3881 6.62385C22.4937 6.62385 22.5993 6.62385 22.705 6.66942L22.9614 6.62385C23.0067 6.5175 23.067 6.41115 23.1726 6.36558C23.3235 6.32 23.4895 6.32 23.5951 6.41115L23.7007 6.56308C23.9119 6.5175 24.1684 6.56308 24.3343 6.45673C24.4399 6.41115 24.5455 6.45673 24.6512 6.50231C24.6964 6.54788 24.7568 6.65423 24.6964 6.715C24.6964 6.715 24.6964 6.76058 24.6512 6.76058C25.3301 7.55058 25.7525 8.44692 26.0241 9.46481L26.1297 6.66942L26.0844 6.35038H26.4465C26.1297 5.39327 26.3409 4.28423 27.1254 3.64615C27.2763 3.32712 27.3819 2.9625 27.4875 2.53712C27.4422 2.53712 27.4422 2.49154 27.3819 2.43077C26.9594 2.53712 26.5974 2.64346 26.2202 2.74981V0.850769C26.537 1.00269 26.8991 1.10904 27.2763 1.21538C27.3215 1.21538 27.3215 1.16981 27.3819 1.10904C27.3366 0.744423 27.231 0.364615 27.065 0H28.9056C28.7548 0.364615 28.6492 0.744423 28.5888 1.10904L28.6341 1.15462C28.9962 1.10904 29.4186 0.941923 29.7354 0.835577V2.68904C29.3733 2.53712 28.9962 2.43077 28.6341 2.37L28.6039 2.43077C28.6492 2.79538 28.7548 3.17519 28.9207 3.53981H28.8755C29.6147 4.17788 29.8259 5.18058 29.6147 6.07692L29.5695 6.28962H29.9919V6.50231L30.1427 9.10019C30.354 8.56846 30.5652 8.03673 30.882 7.56577C31.0329 7.3075 31.2441 7.03404 31.4553 6.77577C31.41 6.66942 31.3044 6.56308 31.41 6.45673C31.5156 6.35038 31.6213 6.30481 31.7721 6.35038C31.8174 6.39596 31.8777 6.45673 31.923 6.50231L32.3907 6.54788C32.4359 6.39596 32.5416 6.28962 32.7075 6.22885C32.8131 6.22885 32.9187 6.22885 33.0243 6.33519C33.1299 6.44154 33.1752 6.54788 33.1752 6.65423L33.3864 6.69981C33.4317 6.59346 33.5373 6.59346 33.5976 6.54788C33.6429 6.54788 33.7485 6.54788 33.8088 6.59346L33.9144 6.80615C36.5999 7.33788 39.4362 8.91788 40.5828 11.6677C41.1109 12.8831 41.2617 14.3719 40.9449 15.7392C41.0958 15.7848 41.0958 15.9975 41.1561 16.1038V16.3621L40.8393 16.6204C40.6281 17.1977 40.3716 17.7294 40.1 18.2612C40.2056 18.4131 40.1453 18.7321 40.0548 18.8992C39.9039 19.0512 39.738 19.1575 39.5267 19.2183C39.1043 19.75 38.6366 20.2817 38.1538 20.7527C38.1991 20.9046 38.1538 21.1173 38.0482 21.2237C38.003 21.2692 37.9426 21.2692 37.837 21.2692L37.7314 21.6946L37.8823 22.3327L37.4598 22.6973L37.2486 23.381C37.3542 23.4265 37.4598 23.5937 37.4598 23.7456C37.4598 23.8975 37.3542 24.0646 37.2034 24.1102H18.9483V24.171Z" fill="#B56D37"/>
<path d="M14.4824 28.5007L18.7972 34.7903L18.2541 35.2157L25.5561 43.6019L14.5276 43.845L13.6375 44.5134L14.5276 45.425L25.8729 45.7288L14.1203 60.6173V61.4528L14.8746 61.225L27.9247 46.3365L40.8994 61.225L41.6839 61.4528V60.6173L29.9614 45.8048L35.6944 45.8807V44.9692L41.4727 44.5742L35.6944 44.3159V43.4196L30.3386 43.5259L37.5803 35.2461L37.0522 34.7903L41.2765 28.5007L35.9962 34.0003L35.4832 33.575L27.9247 43.1461L20.3662 33.575L19.7024 33.8788L14.4824 28.5007Z" fill="#CFCFCE"/>
<path d="M37.8059 76.0528C37.0214 76.311 36.1766 76.4174 35.392 76.3718C34.4416 76.3262 33.4458 76.1135 32.4501 75.7337C30.8811 75.1564 29.6138 74.4576 28.4068 73.7283C26.0986 72.4066 23.9412 71.1305 19.8979 71.2368C18.3741 71.2824 16.8504 71.1912 15.3266 70.9785C14.0593 70.8266 12.8071 70.5532 11.5398 70.2949L11.2833 69.3378C12.6562 69.6568 13.9688 69.9151 15.3266 70.0822C16.79 70.2949 18.3138 70.4012 19.8375 70.3405C23.9864 70.2341 26.1891 71.5103 28.4974 72.832C29.7043 73.5157 30.9113 74.2601 32.4954 74.7918C33.4458 75.1564 34.4416 75.3691 35.3317 75.4299C36.2822 75.5362 37.1119 75.4299 38.0624 75.1108L37.8059 76.0528Z" fill="#FFCB0B"/>
<path d="M37.2628 78.21C35.7994 78.6353 34.3209 78.6353 32.9631 78.3163C31.2281 77.9517 29.5987 77.1009 28.0297 76.0375C24.7709 73.8194 20.9992 73.6067 17.2124 73.3332C15.5831 73.2269 13.9084 73.1205 12.2791 72.8623L12.0226 71.9052C13.6972 72.2242 15.4925 72.3305 17.2275 72.4369C21.0596 72.6952 24.8916 72.9686 28.1504 75.1867C29.7194 76.2502 31.3488 77.0857 33.0385 77.4048C34.4567 77.7694 36.0106 77.7238 37.5344 77.2528L37.2628 78.21Z" fill="#FFCB0B"/>
<path d="M43.781 72.7712C42.1516 73.0294 40.4166 73.1358 38.742 73.3029C36.5393 73.4548 34.3819 73.5612 32.3301 74.0929L31.1232 73.5612C33.5371 72.7712 36.1169 72.6041 38.6817 72.4521C40.4619 72.3458 42.2572 72.2394 43.9319 71.9204L43.781 72.7712Z" fill="#FFCB0B"/>
<path d="M44.4593 70.234C43.192 70.4923 41.8794 70.7657 40.5669 70.9176C39.0431 71.1303 37.5797 71.2367 35.9956 71.1759C32.948 71.1759 31.0018 71.814 29.2669 72.7103L28.422 72.2394C30.3682 71.1303 32.4653 70.2796 35.9805 70.3859C37.5043 70.4315 39.028 70.3403 40.4914 70.1276C41.9096 69.915 43.2674 69.6567 44.6403 69.3376L44.4593 70.234Z" fill="#FFCB0B"/>
<path d="M27.397 76.3109C25.9789 77.2072 24.5154 77.8909 22.9917 78.2707C21.5735 78.5897 20.1553 78.5897 18.7372 78.1643L18.4807 77.268C20.0045 77.739 21.4679 77.739 22.9464 77.4199C24.2137 77.1617 25.4659 76.6299 26.6728 75.8855L27.397 76.3109Z" fill="#FFCB0B"/>
<path d="M24.9212 75.05C24.4535 75.2627 23.9707 75.4754 23.3974 75.6881C22.4017 76.0527 21.4512 76.2654 20.4555 76.3262C19.7163 76.4325 18.9317 76.3262 18.1472 76.0679L17.8907 75.1108C18.7809 75.4298 19.6257 75.5362 20.5159 75.4754C21.4663 75.4298 22.4017 75.2172 23.3522 74.8373C23.503 74.7918 23.6086 74.731 23.7746 74.6854L24.9212 75.05Z" fill="#FFCB0B"/>
<path d="M22.1468 74.6245C21.996 74.6701 21.83 74.6701 21.6791 74.7309C21.2114 74.579 20.789 74.4726 20.3062 74.4726C19.8385 74.4726 19.3105 74.5182 18.8428 74.6853C18.6919 74.6397 18.526 74.6397 18.3751 74.579C19.054 74.3663 19.6877 74.2599 20.3666 74.2599C20.8795 74.2447 21.5132 74.4574 22.1468 74.6245Z" fill="#FFCB0B"/>
<path d="M12.4611 68.9731L16.3836 68.2743L16.5345 69.1251L15.3728 69.3378L12.4611 68.9731Z" fill="#FFCB0B"/>
<path d="M6.22963 60.9819C7.11975 62.5619 8.32669 64.0964 9.74485 65.2662C11.2083 66.436 15.3119 67.9704 15.3119 67.9704C15.3119 67.9704 13.6372 68.335 13.4713 68.335C11.6307 67.5906 9.85046 66.5879 8.47756 65.4333C7.16501 64.3242 6.10893 63.0025 5.38477 61.4681L6.22963 60.9819Z" fill="#FFCB0B"/>
<path d="M3.96685 62.243C4.85698 63.7167 5.80744 65.0992 6.95404 66.3146C8.05538 67.4844 9.42828 68.4871 11.1029 69.1707L11.465 70.4469C9.68475 69.5961 8.05538 68.4871 6.57687 67.1653C5.20397 65.8892 3.99703 64.4155 3.06165 62.6684L3.96685 62.243Z" fill="#FFCB0B"/>
<path d="M7.28528 61.9847L10.6496 63.9901L9.97073 64.6282L9.29182 64.2028L7.28528 61.9847Z" fill="#FFCB0B"/>
<path d="M7.12049 55.8922C7.01489 55.5276 6.96963 55.1478 6.86402 54.7224L6.60754 52.079L7.9201 55.8922H7.12049Z" fill="#FFCB0B"/>
<path d="M6.18389 49.7094C6.07829 52.2465 6.2895 54.6317 6.92315 56.8497C7.49644 58.9615 8.34131 60.9213 9.6086 62.7747L7.87362 61.6657C7.02875 60.192 6.4102 58.5968 5.92742 56.9561C5.29377 54.6772 5.08256 52.2465 5.18816 49.7094H6.18389Z" fill="#FFCB0B"/>
<path d="M3.49847 49.6031C3.39286 52.2465 3.64934 54.7381 4.28298 57.1081C4.64507 58.4906 5.12785 59.8123 5.70114 61.0277L4.85628 61.4986C4.17738 60.0706 3.64934 58.5969 3.28726 57.0625C2.71396 54.6773 2.50274 52.1402 2.60835 49.5575L3.49847 49.6031Z" fill="#FFCB0B"/>
<path d="M4.70616 32.1013C8.4326 36.8109 8.07051 42.2498 7.64808 47.7494C7.43687 49.6484 7.286 51.6082 7.33126 53.5073L6.4864 50.1802C6.53166 49.3902 6.59201 48.6002 6.63727 47.795C6.99935 42.4473 7.37652 37.054 3.90656 32.4659L4.70616 32.1013Z" fill="#FFCB0B"/>
<path d="M2.29183 33.6357C5.7618 38.2846 5.44498 42.9942 5.06781 48.0229C5.02254 48.5546 5.02254 49.0256 4.9622 49.5573L4.07208 49.5117C4.07208 49.0863 4.11734 48.6609 4.11734 48.2356C4.43416 43.2677 4.75098 38.6036 1.43188 34.1219L2.29183 33.6357Z" fill="#FFCB0B"/>
<path d="M7.54217 30.9315C7.90425 30.7188 8.11547 30.4605 8.22108 30.1871C8.37194 29.7161 8.11547 29.1236 7.54217 28.4399C7.11974 27.969 6.65205 27.5892 6.12401 27.2246C5.55071 26.7992 5.02267 26.3738 4.55498 25.8421C4.08729 25.3103 3.98168 24.733 4.02694 24.1557C4.02694 23.6847 4.7662 22.834 4.17781 23.3657C3.64977 23.8974 2.44283 25.7965 3.4989 27.0119C3.9666 27.5892 4.60024 27.969 5.17354 28.3336C5.59597 28.5919 6.0184 28.8653 6.48609 29.2299C6.80292 29.4882 7.05939 29.7617 7.22535 30.0807C7.43656 30.4149 7.54217 30.6732 7.54217 30.9315ZM5.18863 22.4694C4.97741 22.834 4.82654 23.2138 4.7662 23.6392C4.72094 24.0646 4.8718 24.5963 5.29423 25.1736C5.76193 25.7509 6.39557 26.2371 6.96887 26.708C7.3913 27.0271 7.85899 27.3917 8.23616 27.7715C8.80946 28.3032 9.08102 28.8805 9.12628 29.4578C9.12628 29.7161 9.12628 29.9896 9.02068 30.2022C8.91507 30.4149 8.80946 30.6276 8.59825 30.8403C8.17582 31.3113 7.43656 31.7367 6.54644 31.6911C6.22962 31.6911 6.54644 31.5847 6.75766 31.3265C6.90852 31.1138 6.65205 30.8555 6.54644 30.6428C6.39557 30.3846 6.18436 30.1719 5.91279 29.9592C5.55071 29.5946 5.12828 29.3211 4.70585 29.0628C4.0722 28.6982 3.4989 28.3184 2.97087 27.6803C1.50745 25.9332 3.33295 23.9734 4.34377 23.0771L5.18863 22.4694Z" fill="#FFCB0B"/>
<path d="M15.8391 24.171C15.0998 22.591 13.9532 21.2692 12.7915 20.8438C12.007 20.5248 11.1622 20.4792 10.2117 20.5856C10.5285 20.6312 10.785 20.7375 11.1018 20.9046C11.9467 21.33 13.048 22.6517 13.9834 24.2317H12.9273C12.1881 23.0163 11.2527 21.6946 10.619 21.33C9.87978 20.9046 8.20514 20.7983 8.20514 20.7527C10.5134 19.9627 12.2484 19.9627 13.6666 20.54C14.9791 21.1173 16.1861 22.6517 16.9253 24.1862H15.8391V24.171Z" fill="#FFCB0B"/>
<path d="M37.5343 74.6245C37.3835 74.6701 37.1723 74.6701 37.0063 74.7309C36.5839 74.6245 36.1614 74.5789 35.739 74.5789C35.3166 74.5789 34.9545 74.6853 34.5321 74.7916C34.3812 74.7916 34.17 74.7461 34.004 74.6853C34.5773 74.5334 35.1657 74.3207 35.739 74.3207C36.3727 74.3511 36.961 74.4574 37.5343 74.6245Z" fill="#FFCB0B"/>
<path d="M39.5257 68.3198L43.237 68.9731L40.3705 69.3833L39.4201 69.1706L39.5257 68.3198Z" fill="#FFCB0B"/>
<path d="M50.6147 61.4529C49.8755 62.9873 48.7741 64.3546 47.4616 65.4789C46.149 66.6487 44.414 67.5906 42.6338 68.335L40.6876 68.016C42.7847 67.4842 44.7912 66.4815 46.2546 65.3117C47.718 64.1419 48.8797 62.6075 49.8302 60.9819L50.6147 61.4529Z" fill="#FFCB0B"/>
<path d="M52.9227 62.7138C51.9722 64.4609 50.7652 65.9953 49.3471 67.2563C47.9289 68.578 46.2995 69.6415 44.459 70.5378L44.8814 69.2617C46.556 68.6236 47.8686 67.6209 49.0303 66.4055C50.1919 65.1901 51.1877 63.762 52.0174 62.2732L52.9227 62.7138Z" fill="#FFCB0B"/>
<path d="M46.089 64.6738L45.3497 64.0965L48.3973 62.243L46.089 64.6738Z" fill="#FFCB0B"/>
<path d="M48.1407 55.8924L49.408 52.5653L48.8347 55.8924H48.1407Z" fill="#FFCB0B"/>
<path d="M47.6729 61.924L48.1406 61.6049L46.9336 62.3949L46.4659 62.714C47.6729 60.9213 48.5177 58.9615 49.0458 56.9561C49.6794 54.6772 49.8906 52.2465 49.785 49.7094H50.7355C50.8411 52.3072 50.6299 54.738 49.9963 57.0624C49.5738 58.6424 48.9402 60.1768 48.1557 61.6049" fill="#FFCB0B"/>
<path d="M53.3449 49.6029C53.4505 52.2464 53.2393 54.7835 52.666 57.2143C52.3039 58.6879 51.7758 60.116 51.0969 61.5441L50.2521 61.0731C50.8254 59.8577 51.3082 58.536 51.6702 57.2143C52.3039 54.8291 52.5604 52.3679 52.4095 49.6789L53.3449 49.6029Z" fill="#FFCB0B"/>
<path d="M51.9267 32.4204C48.5171 36.9629 48.8791 42.3106 49.2412 47.6583C49.2865 48.6154 49.3468 49.451 49.3921 50.3018L48.5472 53.5833C48.5925 51.6235 48.5171 49.5269 48.3511 47.5671C47.9287 42.1131 47.4459 36.7198 51.1723 32.0558L51.9267 32.4204Z" fill="#FFCB0B"/>
<path d="M51.0226 47.8558C51.1282 48.4331 51.1735 48.9649 51.1735 49.5422L51.0226 47.8558Z" fill="#FFCB0B"/>
<path d="M50.9161 49.5573C50.8708 49.0256 50.8708 48.4483 50.8105 47.9165C50.4936 42.8879 50.1768 38.239 53.4959 33.5294L54.386 34.0611C51.1876 38.4973 51.4441 43.1613 51.7609 48.1292C51.8062 48.6002 51.776 49.1015 51.8364 49.5269L50.9161 49.5573Z" fill="#FFCB0B"/>
<path d="M51.8223 23.4873C52.6671 24.49 53.5573 25.918 52.5012 27.1334C52.0335 27.7107 51.3999 28.0905 50.8266 28.4552C50.4041 28.7134 49.9817 28.9869 49.514 29.3515C49.1972 29.6098 48.9407 29.8832 48.7748 30.2023C48.6239 30.4605 48.5183 30.734 48.5183 30.9923C48.1562 30.7796 47.945 30.5213 47.8394 30.2478C47.6885 29.7769 47.945 29.1844 48.5183 28.5007C48.9407 28.0298 49.4084 27.65 49.9364 27.2853C50.5097 26.86 51.0378 26.4346 51.5055 25.9028C51.9732 25.3711 52.0788 24.7938 52.0335 24.2165C51.9732 24.0038 51.9279 23.7455 51.8223 23.4873ZM49.1368 31.3569C49.1368 31.0986 49.2424 30.8859 49.3481 30.6732C49.4989 30.415 49.7101 30.2023 49.9817 29.9896C50.4041 29.625 50.8266 29.3515 51.249 29.0932C51.8826 28.7286 52.4559 28.3488 52.984 27.7107C54.4474 25.9636 52.5615 24.0646 51.6714 23.1075C51.4602 22.7884 50.6757 22.5302 50.6757 22.5302C50.8869 22.8948 51.0981 23.2746 51.1434 23.7455C51.1886 24.1709 51.0378 24.7027 50.6153 25.28C50.1477 25.8573 49.514 26.3434 48.9407 26.8144C48.5183 27.1334 48.0506 27.498 47.6734 27.8778C47.1001 28.4096 46.8286 28.9869 46.7833 29.5642C46.7833 29.8225 46.7833 30.0959 46.8889 30.3086C46.9945 30.5213 47.1001 30.734 47.3113 30.9467C47.7338 31.4177 48.473 31.7367 49.3631 31.7975C49.3481 31.7823 49.1368 31.4177 49.1368 31.3569Z" fill="#FFCB0B"/>
<path d="M41.8346 24.1711C42.7851 22.6367 43.8261 21.3757 44.6709 20.9503C44.9878 20.7984 45.3046 20.692 45.5611 20.6313C44.6106 20.5249 43.7808 20.5857 42.9812 20.8895C41.8799 21.3149 40.7182 22.6367 39.994 24.1711H38.8927C39.632 22.6974 40.7786 21.163 42.0911 20.6313C43.464 20.054 45.2442 19.9932 47.5525 20.844C47.5525 20.844 45.8175 20.9959 45.1386 21.4213C44.505 21.7859 43.5696 23.0013 42.8756 24.2167L41.8346 24.1711Z" fill="#FFCB0B"/>
<path d="M37.6405 21.3148L37.5952 21.5731L36.3882 21.9985L37.2331 22.9556C37.2784 22.91 37.2784 22.91 37.3387 22.8492C37.2935 23.0012 37.2935 23.1683 37.2331 23.3202L35.136 23.0012L33.1898 22.7429L31.138 22.591C29.9311 22.4846 28.7241 22.4846 27.4569 22.4846L25.4051 22.5302C23.2476 22.6366 21.1506 22.8948 19.0988 23.2746C19.0535 23.1683 18.9932 23.0164 18.9479 22.8492C19.2044 22.5302 19.4759 22.2719 19.7324 21.9529C19.3703 21.801 18.9479 21.6339 18.5255 21.5275L18.4199 21.2693C23.0364 19.7348 28.8147 19.3702 33.7481 20.3729C35.121 20.6312 36.3732 20.935 37.6405 21.3148Z" fill="#FFCB0B"/>
<path d="M28.6031 34.2132L28.4975 32.3142L28.4522 29.7771H31.711C30.8208 29.458 29.976 28.82 29.3423 27.9844H28.4522L28.4069 27.7717C28.3617 27.6654 28.3013 27.559 28.1957 27.4527C28.0449 27.3463 27.728 27.3007 27.5621 27.4071C27.3509 27.5134 27.2453 27.7261 27.2453 27.9388H24.1525V29.7315H27.1397V32.4813L27.0944 34.3348C27.0491 35.0792 26.9888 35.8692 26.8379 36.5529C26.7323 37.0846 26.4155 37.5555 26.5814 38.1329C26.7323 39.0292 27.8487 39.5154 28.5276 39.09C29.0557 38.7254 29.1613 38.1329 29.1009 37.5555C28.8143 36.4921 28.6634 35.3223 28.6031 34.2132Z" fill="#FFCB0B"/>
<path d="M28.6035 60.0703L28.4978 58.1713L28.4526 55.6342H31.7113C30.8212 55.3151 29.9764 54.6771 29.3427 53.8415H28.4526C28.4526 53.7351 28.4073 53.6288 28.347 53.5224C28.1961 53.2642 27.7737 53.1578 27.5021 53.3098C27.2909 53.4161 27.1853 53.6288 27.1853 53.8415H24.1378V55.6342H27.1249V57.2142L27.0797 59.645C27.0344 60.6476 26.9741 61.6503 26.7629 62.6075C26.612 63.1392 26.3404 63.7165 26.612 64.2938C26.9288 65.1446 27.8793 65.4028 28.4978 64.9775C28.9655 64.6128 29.0711 64.0203 29.0259 63.443C28.8147 62.3492 28.6638 61.2401 28.6035 60.0703Z" fill="#FFCB0B"/>
<path d="M40.8997 15.9215C40.8997 15.9215 40.8545 15.6632 40.7941 15.5569C40.8394 15.2379 40.8997 14.8732 40.8997 14.4934C40.8997 14.539 40.8545 13.7034 40.8545 13.3844C40.8545 13.2781 40.8092 13.0198 40.7489 12.9134C40.7036 12.5944 40.432 11.9563 40.3264 11.6373C40.1152 11.1663 39.5419 10.3156 39.2251 9.89017C38.8027 9.35844 38.0634 8.82671 37.6561 8.50767C37.128 8.14305 36.2832 7.76325 35.8758 7.55055C35.2422 7.29228 34.6085 7.12517 33.99 6.97325C34.0956 7.23152 34.2464 7.55055 34.3068 7.76325C34.4124 8.18863 34.518 9.08498 34.5633 9.51036C34.5633 9.93575 34.5633 10.7865 34.518 11.1967C34.4727 11.6069 34.3671 12.5184 34.3068 12.9438C34.2615 13.2021 34.1559 13.7946 34.0956 14.0529C34.0503 14.4175 33.7788 15.4809 33.7788 15.4809C33.99 15.6329 33.2507 15.3746 33.3111 14.7973C33.3563 14.2656 33.6731 12.6856 33.6731 12.6856C33.8844 10.8321 34.2464 8.50767 33.3563 6.8669L33.0998 6.76055L32.9942 6.91248C32.8886 7.01882 32.6774 7.01882 32.5718 6.95805C32.4662 6.91248 32.4209 6.80613 32.3606 6.63902L31.9985 6.59344C33.0998 8.70517 32.4662 11.5613 32.1041 13.8402C32.0589 14.3111 31.9532 15.5873 31.9532 15.8C31.9532 16.1646 32.3153 16.4381 32.6322 16.6507C32.6322 16.909 32.6322 17.2281 32.8886 17.3952C32.9339 17.2432 33.0395 17.0761 33.1451 16.9698C33.4016 16.7571 33.7788 16.7115 34.1408 16.8179C34.3973 16.9242 34.3973 17.1825 34.3973 17.4559C34.3973 17.8813 34.0352 18.2459 33.7184 18.5194C33.3563 18.7321 32.8283 18.9448 32.3455 18.7321C31.8778 18.6257 31.7722 18.1548 31.4554 17.8357C31.1386 18.2611 30.7765 18.5194 30.2937 18.6257C29.7657 18.6713 29.3432 18.5194 29.0264 18.094C28.6643 17.6686 28.3928 17.0913 28.6643 16.5596C28.8152 16.3013 29.132 16.195 29.4488 16.1342C29.7053 16.1342 29.9165 16.2861 30.0825 16.4988C30.2334 16.7571 30.339 17.0761 30.2334 17.3952C30.339 17.3952 30.3842 17.3952 30.4898 17.3496C30.6407 17.2432 30.7463 17.0913 30.7463 16.8786C30.7916 16.7267 30.5954 16.4077 30.8519 16.4532C31.0631 16.4532 31.3196 16.2406 31.3799 16.0279C31.4856 15.8152 31.4252 15.4961 31.3347 15.2834C31.1838 15.0252 30.9123 14.9188 30.5954 14.9188C30.4446 14.8125 30.7463 14.7061 30.7463 14.5542C30.7916 14.4479 30.7463 14.2959 30.701 14.1896C30.6558 14.0832 30.4898 13.9769 30.3842 13.9769C30.2334 14.4023 29.8562 14.934 29.3885 14.9796C29.132 15.0252 28.9208 14.934 28.7096 14.7669C28.4984 14.5998 28.4531 14.3415 28.5587 14.0832C28.7699 13.6123 29.2376 13.4452 29.6601 13.3996C29.4488 13.1869 29.2376 13.035 28.9208 13.035L28.8152 12.8223C28.8152 12.7767 28.8605 12.7159 28.8605 12.6704V12.1994L29.0113 9.81421L29.3281 7.0644C29.3734 6.85171 29.4338 6.69978 29.4338 6.53267C29.5846 6.21363 29.645 5.84902 29.645 5.46921C29.645 4.67921 29.2829 3.99555 28.8001 3.61575V3.57017C28.6945 3.25113 28.5889 2.99286 28.5436 2.67382C28.6794 2.59786 28.7699 2.46113 28.8001 2.41555C28.8152 2.38517 28.8152 2.38517 28.8001 2.41555C29.1169 2.46113 29.4338 2.5219 29.6902 2.67382V1.06344C29.4338 1.16978 28.8001 1.38248 28.8001 1.38248C28.7247 1.23055 28.6191 1.10902 28.4833 1.03305C28.4833 1.01786 28.4833 1.01786 28.4984 1.00267C28.5436 0.683631 28.6492 0.364592 28.7548 0.106323H27.2914C27.397 0.425362 27.5026 0.683631 27.5479 1.00267C27.397 1.07863 27.2613 1.20017 27.1858 1.38248C26.869 1.3369 26.6125 1.23055 26.341 1.12421V2.59786C26.5974 2.49152 26.9143 2.44594 27.2311 2.38517C27.2763 2.43075 27.4423 2.53709 27.5479 2.59786C27.5026 2.9169 27.397 3.17517 27.2914 3.44863C27.2914 3.44863 27.2914 3.44863 27.2914 3.49421C26.7634 3.81325 26.4013 4.55767 26.4013 5.39325C26.4013 5.75786 26.5069 6.13767 26.6125 6.45671C26.6125 6.60863 26.6578 6.71498 26.7181 6.92767C27.0349 8.78113 27.2462 10.6346 27.3518 12.5792C27.3518 12.6248 27.397 12.6856 27.397 12.7311C27.3518 12.7767 27.2914 12.8831 27.2914 12.9438C27.0349 12.9894 26.7634 13.0957 26.5522 13.3692C26.9746 13.4148 27.3367 13.5819 27.6082 13.9465C27.7139 14.1592 27.7139 14.4175 27.6082 14.6302C27.4574 14.8884 27.1406 15.0556 26.7634 14.9948C26.2957 14.8884 25.9789 14.4175 25.8129 13.9921C25.7073 13.9921 25.6017 14.0377 25.5564 14.144C25.4508 14.2504 25.4056 14.5086 25.5112 14.6757C25.5112 14.7821 25.7677 14.8277 25.6621 14.934C25.3452 14.934 25.0284 15.0859 24.8775 15.405C24.7719 15.6177 24.7719 15.9367 24.8775 16.1494C24.9831 16.4077 25.2396 16.4684 25.5112 16.514C25.5112 16.7267 25.4659 17.0457 25.5564 17.2584C25.6621 17.4104 25.8129 17.4711 25.9789 17.4711C25.9336 17.3192 25.9336 17.1065 25.9789 16.9394C26.0241 16.6811 26.2957 16.3621 26.5522 16.2557C26.7634 16.1494 27.0199 16.2557 27.2311 16.3621C27.5479 16.5748 27.6535 16.9394 27.5932 17.3192C27.4423 17.8965 26.9595 18.5954 26.3259 18.7017C25.647 18.8536 25.0586 18.4434 24.6965 17.9573L24.1685 18.7017C23.8516 18.96 23.4292 19.0663 23.0068 18.96C22.5391 18.8081 22.011 18.489 21.7998 18.0029C21.7546 17.7446 21.649 17.3192 21.9054 17.1065C22.1167 16.9546 22.4787 17.0002 22.6899 17.1065C22.9464 17.2129 23.1576 17.4256 23.218 17.6838H23.2632C23.4745 17.5319 23.4745 17.2584 23.4745 17.0002L23.5197 16.9546C23.6706 16.8482 23.8365 16.7419 23.9874 16.59C24.1383 16.4381 24.3042 16.2254 24.3042 16.0582C24.3042 15.7392 24.093 14.6302 23.9422 13.8857C23.5197 11.6677 23.052 8.81152 24.1534 6.74536C24.0478 6.74536 23.8969 6.74536 23.7309 6.79094C23.7309 6.94286 23.6857 7.04921 23.5801 7.10998C23.4745 7.21632 23.2632 7.21632 23.1576 7.15555C23.052 7.10998 23.0068 7.00363 22.9464 6.89728C22.9012 6.89728 22.7956 6.89728 22.7352 6.94286C22.7352 6.94286 22.3128 8.00632 22.2072 8.58363C21.9507 10.7561 22.358 12.8071 22.7352 14.8277C22.7352 14.8277 22.9917 15.4657 22.3128 15.9367C22.1016 15.7848 20.5778 8.37094 22.0563 6.83652C21.3774 6.98844 20.5929 7.20113 20.1101 7.41382C19.6424 7.62652 18.7372 8.0519 18.3299 8.37094C17.9074 8.68998 17.1229 9.37363 16.7608 9.75344C16.3988 10.1332 15.8707 10.9232 15.6595 11.5006C15.5086 11.9715 15.1918 12.9286 15.1315 13.4604C15.0862 13.7186 15.0862 14.2048 15.0862 14.4631C15.0862 14.7821 15.1315 15.2531 15.1918 15.6329V15.7848C15.1918 15.7848 15.2371 15.8911 15.0862 15.9367C15.0409 16.0886 14.9806 16.195 14.9806 16.4077L15.2974 16.6659C15.5086 17.1977 15.7198 17.775 16.0367 18.2459C16.0819 18.2004 16.1875 18.2004 16.2931 18.2004C16.5044 18.2004 16.6552 18.3067 16.7608 18.5194C16.8664 18.7321 16.8061 19.0511 16.7156 19.2638C16.972 19.6284 17.2889 19.9475 17.6057 20.2665C17.8622 20.4184 18.1337 20.4792 18.4506 20.4184C19.0842 20.2057 19.7631 20.0538 20.3968 19.8411C25.0133 18.565 30.7916 18.5194 35.4232 19.7956L37.3694 20.2665C37.6862 20.3121 38.0483 20.3121 38.3199 20.1602C38.9988 19.5221 39.2703 19.0511 39.2703 19.0511C39.1647 18.8384 39.1647 18.5194 39.3156 18.3067C39.4665 18.1548 39.6777 18.094 39.8889 18.1548C40.1454 17.6231 40.4169 17.0913 40.6282 16.514L40.945 16.2557C41.0053 16.1798 41.0053 16.0279 40.8997 15.9215ZM20.7287 19.4613C20.4118 19.6132 20.1554 19.8259 19.7782 19.7196C19.4614 19.674 19.1445 19.4613 18.9333 19.1423L18.8881 19.1879C18.7825 19.5525 18.6769 19.9779 18.2544 20.145C17.9376 20.2513 17.7264 20.0994 17.5152 19.8867C17.3643 19.674 17.1531 19.5221 17.304 19.2486C17.304 19.1423 17.4096 19.0359 17.5152 18.9904C17.6208 18.9448 17.7717 18.9448 17.8773 18.9904C17.9829 19.0359 18.0885 19.2031 18.1337 19.3094C18.2846 19.0967 18.2846 18.7777 18.1337 18.565C18.0885 18.5194 17.9829 18.4586 18.0281 18.4131C18.1337 18.3675 18.2393 18.3067 18.3449 18.2004C18.3902 18.2004 18.3902 18.1548 18.3902 18.1548C18.3902 18.1092 18.3902 18.1092 18.3902 18.1092C18.3902 18.0636 18.3902 18.0636 18.3902 18.0636C18.4355 17.9117 18.5411 17.699 18.6467 17.4863C18.6467 17.5319 18.6467 17.5319 18.6467 17.5927C18.7523 17.8509 19.0691 17.9573 19.3256 17.9573C19.4312 18.0029 19.3256 18.17 19.3256 18.2763C19.3256 18.3827 19.3709 18.489 19.4765 18.489L19.6877 18.5346C19.5368 18.17 19.6877 17.7446 19.9441 17.4256C20.1554 17.2736 20.3666 17.1673 20.5778 17.2736C21.0455 17.5319 21.0455 18.0636 21.1511 18.489C21.2567 18.884 21.0455 19.2486 20.7287 19.4613ZM21.0907 17.1369C20.8795 17.0913 20.7287 16.8786 20.6683 16.6659C20.6231 16.4077 20.7136 16.195 20.9248 16.0279C21.0304 15.9215 21.1813 15.9215 21.3472 15.9823C21.4981 16.0279 21.6037 16.1342 21.7093 16.2406C21.8149 16.4532 21.8149 16.7115 21.664 16.8786C21.5132 17.1369 21.302 17.2432 21.0907 17.1369ZM28.0759 16.3469C27.8195 16.3469 27.6082 16.2406 27.4423 16.0886C27.2914 15.8759 27.2311 15.5569 27.3367 15.3442C27.4423 15.0859 27.6988 14.9188 27.9703 14.8732C28.2268 14.8732 28.438 14.9796 28.604 15.1315C28.7548 15.3442 28.8152 15.6632 28.7096 15.8759C28.604 16.1342 28.3475 16.2861 28.0759 16.3469ZM34.3822 16.4988C34.4275 16.2861 34.5934 16.1342 34.8047 16.0734C35.0159 16.0127 35.2271 16.119 35.3327 16.3317C35.4383 16.4381 35.4383 16.6507 35.378 16.7571C35.3327 16.909 35.2271 17.0761 35.1215 17.1217C34.9103 17.1673 34.699 17.1673 34.5934 17.0761C34.3822 16.9242 34.3219 16.7115 34.3822 16.4988ZM38.5311 19.6132C38.3199 19.8259 38.1087 19.9779 37.7918 19.8715C37.3694 19.7196 37.2638 19.2942 37.1582 18.9144L37.1129 18.8688C36.9017 19.1879 36.5849 19.4006 36.2681 19.4461C35.906 19.5525 35.6344 19.3398 35.3176 19.1879C35.0008 18.9752 34.7896 18.6106 34.8499 18.1852C34.9555 17.7598 34.9555 17.2281 35.4232 16.9698C35.6344 16.8634 35.8456 16.9698 36.0569 17.1217C36.3133 17.4407 36.4793 17.8661 36.3133 18.2307L36.5245 18.1852C36.6302 18.1852 36.6754 18.0788 36.6754 17.9725C36.6754 17.8661 36.5698 17.7142 36.6754 17.6534C36.9319 17.6534 37.2487 17.5471 37.3543 17.2888C37.3543 17.2432 37.3543 17.2432 37.3543 17.1825C37.4599 17.3952 37.5655 17.6079 37.6108 17.7598C37.6108 17.7598 37.6108 17.7598 37.6108 17.8054C37.6108 17.8054 37.6108 17.8054 37.6108 17.8509C37.6108 17.8509 37.6108 17.8965 37.6561 17.8965C37.7617 18.0029 37.8673 18.0484 37.9729 18.1092C38.0181 18.1548 37.9276 18.2156 37.8673 18.2611C37.7164 18.4738 37.7164 18.7929 37.8673 19.0056C37.9125 18.8992 38.0181 18.7473 38.1238 18.6865C38.2294 18.6409 38.3802 18.6409 38.4858 18.6865C38.5914 18.7321 38.697 18.8384 38.697 18.9448C38.8932 19.2486 38.682 19.4157 38.5311 19.6132Z" fill="#FFCB0B"/>
<path d="M24.6052 17.5926C24.8385 17.5926 25.0276 17.3885 25.0276 17.1368C25.0276 16.8851 24.8385 16.681 24.6052 16.681C24.3719 16.681 24.1827 16.8851 24.1827 17.1368C24.1827 17.3885 24.3719 17.5926 24.6052 17.5926Z" fill="#FFCB0B"/>
<path d="M31.4694 17.5926C31.7027 17.5926 31.8919 17.3885 31.8919 17.1368C31.8919 16.8851 31.7027 16.681 31.4694 16.681C31.2361 16.681 31.047 16.8851 31.047 17.1368C31.047 17.3885 31.2361 17.5926 31.4694 17.5926Z" fill="#FFCB0B"/>
</svg>
