<svg version="1.1" xmlns="http://www.w3.org/2000/svg" xmlns:xlink="http://www.w3.org/1999/xlink">

    <symbol viewBox="0 0 24 25" id="header-top-search">
        <path d="M16.3033 16.4099C13.3744 19.3388 8.62563 19.3388 5.6967 16.4099C2.76777 13.4809 2.76777 8.7322 5.6967 5.80327C8.62563 2.87433 13.3744 2.87433 16.3033 5.80327C19.2322 8.7322 19.2322 13.4809 16.3033 16.4099ZM16.3033 16.4099L21.5 21.6066" />
    </symbol>

    <symbol viewBox="0 0 44 34" id="nav-mobile-link">
        <path d="M0.5 4C0.5 2.067 2.067 0.5 4 0.5H40C41.933 0.5 43.5 2.067 43.5 4V30C43.5 31.933 41.933 33.5 40 33.5H4C2.067 33.5 0.5 31.933 0.5 30V4Z" stroke="#DDDDDD" />
        <path d="M11 11C11 10.4477 11.4477 10 12 10H32C32.5523 10 33 10.4477 33 11C33 11.5523 32.5523 12 32 12H12C11.4477 12 11 11.5523 11 11Z" fill="#888888" />
        <path d="M11 17C11 16.4477 11.4477 16 12 16H32C32.5523 16 33 16.4477 33 17C33 17.5523 32.5523 18 32 18H12C11.4477 18 11 17.5523 11 17Z" fill="#888888" />
        <path d="M11 23C11 22.4477 11.4477 22 12 22H32C32.5523 22 33 22.4477 33 23C33 23.5523 32.5523 24 32 24H12C11.4477 24 11 23.5523 11 23Z" fill="#888888" />
    </symbol>

    <symbol viewBox="0 0 20 20" id="window-close">
        <path d="M2.98242 4.16663L15.8333 17.0175L17.0175 15.8333L4.16663 2.98242L2.98242 4.16663ZM15.8333 2.98242L2.98242 15.8333L4.16663 17.0175L17.0175 4.16663L15.8333 2.98242Z" />
    </symbol>

    <symbol viewBox="0 0 14 14" id="main-slider-prev">
        <path d="M9 2L4.5 7L9 12" stroke-width="2.5" />
    </symbol>

    <symbol viewBox="0 0 14 14" id="main-slider-next">
        <path d="M5 2L9.5 7L5 12" stroke-width="2.5" />
    </symbol>

    <symbol viewBox="0 0 5 8" id="main-slider-item-link">
        <path d="M0 7.88672L2.54883 3.96094L4.26758 3.9707V4.09766L1.38672 7.88672H0ZM0 0.113281H1.38672L4.26758 3.91211V4.03906L2.54883 4.04883L0 0.113281Z" />
    </symbol>

    <symbol viewBox="0 0 14 15" id="main-side-links-list-prev">
        <path d="M0.048584 15L6.99997 0.5L13.9514 15H0.048584Z" />
    </symbol>

    <symbol viewBox="0 0 14 15" id="main-side-links-list-next">
        <path d="M0.048584 0L6.99997 14.5L13.9514 0H0.048584Z" />
    </symbol>

</svg>